<?xml version="1.0" encoding="UTF-8" standalone="no"?>
<svg width="1440px" height="533px" viewBox="0 0 1440 533" version="1.1" xmlns="http://www.w3.org/2000/svg" xmlns:xlink="http://www.w3.org/1999/xlink" xmlns:sketch="http://www.bohemiancoding.com/sketch/ns">
    <!-- Generator: Sketch 3.3.3 (12072) - http://www.bohemiancoding.com/sketch -->
    <title>art copy</title>
    <desc>Created with Sketch.</desc>
    <defs></defs>
    <g id="Page-1" stroke="none" stroke-width="1" fill="none" fill-rule="evenodd" sketch:type="MSPage">
        <g id="art-copy" sketch:type="MSArtboardGroup">
            <g id="Art" sketch:type="MSLayerGroup" transform="translate(862.000000, 24.000000)">
                <path d="M266.954734,375.06428 C266.954734,387.244318 257.076075,397.118912 244.891022,397.118912 C232.70597,397.118912 222.82731,387.244318 222.82731,375.06428 C222.82731,362.884242 232.70597,353.009648 244.891022,353.009648 C257.076075,353.009648 266.954734,362.884242 266.954734,375.06428" id="Fill-1" fill="#42C4E6" sketch:type="MSShapeGroup"></path>
                <path d="M289.018446,353.009648 C301.203499,353.009648 311.082158,362.884242 311.082158,375.06428 L311.082158,419.173544 C311.082158,431.353582 301.203499,441.228176 289.018446,441.228176 C276.833393,441.228176 266.954734,431.353582 266.954734,419.173544 L266.954734,375.06428 C266.954734,362.884242 276.833393,353.009648 289.018446,353.009648" id="Fill-2" fill="#E4F6FB" sketch:type="MSShapeGroup"></path>
                <path d="M243.063712,0 C255.248765,0 265.127424,9.87459382 265.127424,22.0546318 L265.127424,66.1638955 C265.127424,78.3439335 255.248765,88.2185273 243.063712,88.2185273 C230.878659,88.2185273 221,78.3439335 221,66.1638955 L221,22.0546318 C221,9.87459382 230.878659,0 243.063712,0" id="Fill-3" fill="#42C4E6" sketch:type="MSShapeGroup"></path>
                <path d="M311.082158,375.06428 C311.082158,387.244318 301.203499,397.118912 289.018446,397.118912 C276.833393,397.118912 266.954734,387.244318 266.954734,375.06428 C266.954734,362.884242 276.833393,353.009648 289.018446,353.009648 C301.203499,353.009648 311.082158,362.884242 311.082158,375.06428" id="Fill-4" fill="#6673D1" sketch:type="MSShapeGroup"></path>
                <path d="M353.754848,66.0083135 C353.754848,78.1883515 343.876188,88.0629454 331.691136,88.0629454 L287.563712,88.0629454 C275.378659,88.0629454 265.5,78.1883515 265.5,66.0083135 C265.5,53.8282755 275.378659,43.9536817 287.563712,43.9536817 L331.691136,43.9536817 C343.876188,43.9536817 353.754848,53.8282755 353.754848,66.0083135" id="Fill-5" fill="#6673D1" sketch:type="MSShapeGroup"></path>
                <path d="M309.627424,66.0083135 C309.627424,78.1883515 299.748765,88.0629454 287.563712,88.0629454 C275.378659,88.0629454 265.5,78.1883515 265.5,66.0083135 C265.5,53.8282755 275.378659,43.9536817 287.563712,43.9536817 C299.748765,43.9536817 309.627424,53.8282755 309.627424,66.0083135" id="Fill-6" fill="#42C4E6" sketch:type="MSShapeGroup"></path>
                <path d="M265.5,66.0083135 C265.5,78.1883515 255.621341,88.0629454 243.436288,88.0629454 C231.251235,88.0629454 221.372576,78.1883515 221.372576,66.0083135 C221.372576,53.8282755 231.251235,43.9536817 243.436288,43.9536817 C255.621341,43.9536817 265.5,53.8282755 265.5,66.0083135" id="Fill-7" fill="#F4F3F5" sketch:type="MSShapeGroup"></path>
                <path d="M398.127424,66.0546318 C398.127424,78.2346698 388.248765,88.1092637 376.063712,88.1092637 C363.878659,88.1092637 354,78.2346698 354,66.0546318 C354,53.8745938 363.878659,44 376.063712,44 C388.248765,44 398.127424,53.8745938 398.127424,66.0546318" id="Fill-8" fill="#5CBF8A" sketch:type="MSShapeGroup"></path>
                <path d="M486.137119,110.117577 C486.137119,122.297615 476.25846,132.172209 464.073407,132.172209 C451.888355,132.172209 442.009695,122.297615 442.009695,110.117577 C442.009695,97.9375392 451.888355,88.0629454 464.073407,88.0629454 C476.25846,88.0629454 486.137119,97.9375392 486.137119,110.117577" id="Fill-9" fill="#6673D1" sketch:type="MSShapeGroup"></path>
                <path d="M577.333795,242.945368 C577.333795,255.125406 567.455136,265 555.270083,265 C543.08503,265 533.206371,255.125406 533.206371,242.945368 C533.206371,230.76533 543.08503,220.890736 555.270083,220.890736 C567.455136,220.890736 577.333795,230.76533 577.333795,242.945368" id="Fill-10" fill="#5CBF8A" sketch:type="MSShapeGroup"></path>
                <path d="M530.127424,66.0546318 C530.127424,78.2346698 520.248765,88.1092637 508.063712,88.1092637 C495.878659,88.1092637 486,78.2346698 486,66.0546318 C486,53.8745938 495.878659,44 508.063712,44 C520.248765,44 530.127424,53.8745938 530.127424,66.0546318" id="Fill-11" fill="#F4F3F5" sketch:type="MSShapeGroup"></path>
                <path d="M133.117729,110.117577 C133.117729,122.297615 123.239069,132.172209 111.054017,132.172209 C98.868964,132.172209 88.9903047,122.297615 88.9903047,110.117577 C88.9903047,97.9375392 98.868964,88.0629454 111.054017,88.0629454 C123.239069,88.0629454 133.117729,97.9375392 133.117729,110.117577" id="Fill-13" fill="#6673D1" sketch:type="MSShapeGroup"></path>
                <path d="M177.245152,110.117577 C177.245152,122.297615 167.366493,132.172209 155.18144,132.172209 C142.996388,132.172209 133.117729,122.297615 133.117729,110.117577 C133.117729,97.9375392 142.996388,88.0629454 155.18144,88.0629454 C167.366493,88.0629454 177.245152,97.9375392 177.245152,110.117577" id="Fill-14" fill="#F4F3F5" sketch:type="MSShapeGroup"></path>
                <path d="M265.5,110.117577 C265.5,122.297615 255.621341,132.172209 243.436288,132.172209 C231.251235,132.172209 221.372576,122.297615 221.372576,110.117577 C221.372576,97.9375392 231.251235,88.0629454 243.436288,88.0629454 C255.621341,88.0629454 265.5,97.9375392 265.5,110.117577" id="Fill-15" fill="#6673D1" sketch:type="MSShapeGroup"></path>
                <path d="M397.882271,110.117577 C397.882271,122.296145 388.003612,132.172209 375.81856,132.172209 L287.563712,132.172209 C275.378659,132.172209 265.5,122.296145 265.5,110.117577 C265.5,97.9360689 275.378659,88.0629454 287.563712,88.0629454 L375.81856,88.0629454 C388.003612,88.0629454 397.882271,97.9360689 397.882271,110.117577" id="Fill-16" fill="#F4F3F5" sketch:type="MSShapeGroup"></path>
                <path d="M309.627424,110.117577 C309.627424,122.297615 299.748765,132.172209 287.563712,132.172209 C275.378659,132.172209 265.5,122.297615 265.5,110.117577 C265.5,97.9375392 275.378659,88.0629454 287.563712,88.0629454 C299.748765,88.0629454 309.627424,97.9375392 309.627424,110.117577" id="Fill-17" fill="#42C4E6" sketch:type="MSShapeGroup"></path>
                <path d="M419.945983,176.281473 C407.760931,176.281473 397.882271,166.406879 397.882271,154.226841 L397.882271,110.117577 C397.882271,97.9375392 407.760931,88.0629454 419.945983,88.0629454 C432.131036,88.0629454 442.009695,97.9375392 442.009695,110.117577 L442.009695,154.226841 C442.009695,166.406879 432.131036,176.281473 419.945983,176.281473" id="Fill-18" fill="#5CBF8A" sketch:type="MSShapeGroup"></path>
                <path d="M442.009695,110.117577 C442.009695,122.297615 432.131036,132.172209 419.945983,132.172209 C407.760931,132.172209 397.882271,122.297615 397.882271,110.117577 C397.882271,97.9375392 407.760931,88.0629454 419.945983,88.0629454 C432.131036,88.0629454 442.009695,97.9375392 442.009695,110.117577" id="Fill-19" fill="#F4F3F5" sketch:type="MSShapeGroup"></path>
                <path d="M487.50654,463.281337 C487.50654,475.462846 477.627881,485.335969 465.442828,485.335969 L421.315404,485.335969 C409.130352,485.335969 399.251693,475.462846 399.251693,463.281337 C399.251693,451.10277 409.130352,441.226705 421.315404,441.226705 L465.442828,441.226705 C477.627881,441.226705 487.50654,451.10277 487.50654,463.281337" id="Fill-20" fill="#42C4E6" sketch:type="MSShapeGroup"></path>
                <path d="M443.379116,463.281337 C443.379116,475.462846 433.500457,485.335969 421.315404,485.335969 C409.130352,485.335969 399.251693,475.462846 399.251693,463.281337 C399.251693,451.10277 409.130352,441.226705 421.315404,441.226705 C433.500457,441.226705 443.379116,451.10277 443.379116,463.281337" id="Fill-21" fill="#6673D1" sketch:type="MSShapeGroup"></path>
                <path d="M575.846701,287.054632 C575.846701,299.23614 565.968042,309.109264 553.782989,309.109264 L509.655565,309.109264 C497.470512,309.109264 487.591853,299.23614 487.591853,287.054632 C487.591853,274.876064 497.470512,265 509.655565,265 L553.782989,265 C565.968042,265 575.846701,274.876064 575.846701,287.054632" id="Fill-22" fill="#42C4E6" sketch:type="MSShapeGroup"></path>
                <path d="M531.719277,287.054632 C531.719277,299.23614 521.840618,309.109264 509.655565,309.109264 C497.470512,309.109264 487.591853,299.23614 487.591853,287.054632 C487.591853,274.876064 497.470512,265 509.655565,265 C521.840618,265 531.719277,274.876064 531.719277,287.054632" id="Fill-23" fill="#6673D1" sketch:type="MSShapeGroup"></path>
                <path d="M399.337006,419.172074 C399.337006,431.353582 389.458346,441.226705 377.273294,441.226705 C365.088241,441.226705 355.209582,431.353582 355.209582,419.172074 C355.209582,406.993506 365.088241,397.117442 377.273294,397.117442 C389.458346,397.117442 399.337006,406.993506 399.337006,419.172074" id="Fill-24" fill="#6673D1" sketch:type="MSShapeGroup"></path>
                <path d="M399,419.054632 C399,406.876064 408.878659,397 421.063712,397 C433.248765,397 443.127424,406.876064 443.127424,419.054632 C443.127424,431.23614 433.248765,441.109264 421.063712,441.109264 C408.878659,441.109264 399,431.23614 399,419.054632" id="Fill-25" fill="#6673D1" sketch:type="MSShapeGroup"></path>
                <path d="M353.754848,154.226841 C353.754848,166.405409 343.876188,176.281473 331.691136,176.281473 L243.436288,176.281473 C231.251235,176.281473 221.372576,166.405409 221.372576,154.226841 C221.372576,142.045333 231.251235,132.172209 243.436288,132.172209 L331.691136,132.172209 C343.876188,132.172209 353.754848,142.045333 353.754848,154.226841" id="Fill-26" fill="#F4F3F5" sketch:type="MSShapeGroup"></path>
                <path d="M221.372576,154.226841 C221.372576,166.405409 211.495388,176.281473 199.308864,176.281473 L111.054017,176.281473 C98.8704349,176.281473 88.9903047,166.405409 88.9903047,154.226841 C88.9903047,142.045333 98.8704349,132.172209 111.054017,132.172209 L199.308864,132.172209 C211.495388,132.172209 221.372576,142.045333 221.372576,154.226841" id="Fill-27" fill="#42C4E6" sketch:type="MSShapeGroup"></path>
                <path d="M399.337006,330.955017 C399.337006,343.133584 389.459817,353.009648 377.273294,353.009648 L289.018446,353.009648 C276.834864,353.009648 266.954734,343.133584 266.954734,330.955017 C266.954734,318.773508 276.834864,308.900385 289.018446,308.900385 L377.273294,308.900385 C389.459817,308.900385 399.337006,318.773508 399.337006,330.955017" id="Fill-28" fill="#5CBF8A" sketch:type="MSShapeGroup"></path>
                <path d="M265.5,154.226841 C265.5,166.406879 255.621341,176.281473 243.436288,176.281473 C231.251235,176.281473 221.372576,166.406879 221.372576,154.226841 C221.372576,142.046803 231.251235,132.172209 243.436288,132.172209 C255.621341,132.172209 265.5,142.046803 265.5,154.226841" id="Fill-29" fill="#6673D1" sketch:type="MSShapeGroup"></path>
                <path d="M375.81856,220.390736 C363.633507,220.390736 353.754848,210.516143 353.754848,198.336105 L353.754848,154.226841 C353.754848,142.046803 363.633507,132.172209 375.81856,132.172209 C388.003612,132.172209 397.882271,142.046803 397.882271,154.226841 L397.882271,198.336105 C397.882271,210.516143 388.003612,220.390736 375.81856,220.390736" id="Fill-30" fill="#52BADE" sketch:type="MSShapeGroup"></path>
                <path d="M111.054017,308.609264 C98.868964,308.609264 88.9903047,298.73467 88.9903047,286.554632 L88.9903047,242.445368 C88.9903047,230.26533 98.868964,220.390736 111.054017,220.390736 C123.239069,220.390736 133.117729,230.26533 133.117729,242.445368 L133.117729,286.554632 C133.117729,298.73467 123.239069,308.609264 111.054017,308.609264" id="Fill-31" fill="#42C4E6" sketch:type="MSShapeGroup"></path>
                <path d="M397.882271,154.226841 C397.882271,166.406879 388.003612,176.281473 375.81856,176.281473 C363.633507,176.281473 353.754848,166.406879 353.754848,154.226841 C353.754848,142.046803 363.633507,132.172209 375.81856,132.172209 C388.003612,132.172209 397.882271,142.046803 397.882271,154.226841" id="Fill-34" fill="#6673D1" sketch:type="MSShapeGroup"></path>
                <path d="M486.137119,154.226841 C486.137119,166.406879 476.25846,176.281473 464.073407,176.281473 C451.888355,176.281473 442.009695,166.406879 442.009695,154.226841 C442.009695,142.046803 451.888355,132.172209 464.073407,132.172209 C476.25846,132.172209 486.137119,142.046803 486.137119,154.226841" id="Fill-35" fill="#5CBF8A" sketch:type="MSShapeGroup"></path>
                <path d="M221.372576,154.226841 C221.372576,166.406879 211.493917,176.281473 199.308864,176.281473 C187.123812,176.281473 177.245152,166.406879 177.245152,154.226841 C177.245152,142.046803 187.123812,132.172209 199.308864,132.172209 C211.493917,132.172209 221.372576,142.046803 221.372576,154.226841" id="Fill-37" fill="#F4F3F5" sketch:type="MSShapeGroup"></path>
                <path d="M443.464429,375.06428 C443.464429,362.884242 453.343089,353.009648 465.528141,353.009648 C477.713194,353.009648 487.591853,362.884242 487.591853,375.06428 C487.591853,387.244318 477.713194,397.117442 465.528141,397.117442 C453.343089,397.117442 443.464429,387.244318 443.464429,375.06428" id="Fill-38" fill="#606AB1" sketch:type="MSShapeGroup"></path>
                <path d="M311.082158,375.06428 C311.082158,362.884242 320.960817,353.009648 333.14587,353.009648 C345.330922,353.009648 355.209582,362.884242 355.209582,375.06428 C355.209582,387.244318 345.330922,397.117442 333.14587,397.117442 C320.960817,397.117442 311.082158,387.244318 311.082158,375.06428" id="Fill-39" fill="#6673D1" sketch:type="MSShapeGroup"></path>
                <path d="M399.337006,375.06428 C399.337006,362.884242 409.215665,353.009648 421.400717,353.009648 C433.58577,353.009648 443.464429,362.884242 443.464429,375.06428 C443.464429,387.244318 433.58577,397.117442 421.400717,397.117442 C409.215665,397.117442 399.337006,387.244318 399.337006,375.06428" id="Fill-40" fill="#5CBF8A" sketch:type="MSShapeGroup"></path>
                <path d="M265.5,330.955017 C265.5,343.135055 255.621341,353.009648 243.436288,353.009648 C231.251235,353.009648 221.372576,343.135055 221.372576,330.955017 C221.372576,318.774979 231.251235,308.900385 243.436288,308.900385 C255.621341,308.900385 265.5,318.774979 265.5,330.955017" id="Fill-41" fill="#5CBF8A" sketch:type="MSShapeGroup"></path>
                <path d="M177.245152,198.336105 C177.245152,210.516143 167.366493,220.390736 155.18144,220.390736 C142.996388,220.390736 133.117729,210.516143 133.117729,198.336105 C133.117729,186.156067 142.996388,176.281473 155.18144,176.281473 C167.366493,176.281473 177.245152,186.156067 177.245152,198.336105" id="Fill-42" fill="#6673D1" sketch:type="MSShapeGroup"></path>
                <path d="M221.372576,198.336105 C221.372576,210.516143 211.493917,220.390736 199.308864,220.390736 C187.123812,220.390736 177.245152,210.516143 177.245152,198.336105 C177.245152,186.156067 187.123812,176.281473 199.308864,176.281473 C211.493917,176.281473 221.372576,186.156067 221.372576,198.336105" id="Fill-43" fill="#6673D1" sketch:type="MSShapeGroup"></path>
                <path d="M265.5,198.336105 C265.5,210.516143 255.621341,220.390736 243.436288,220.390736 C231.251235,220.390736 221.372576,210.516143 221.372576,198.336105 C221.372576,186.156067 231.251235,176.281473 243.436288,176.281473 C255.621341,176.281473 265.5,186.156067 265.5,198.336105" id="Fill-44" fill="#F4F3F5" sketch:type="MSShapeGroup"></path>
                <path d="M309.627424,198.336105 C309.627424,210.516143 299.748765,220.390736 287.563712,220.390736 C275.378659,220.390736 265.5,210.516143 265.5,198.336105 C265.5,186.156067 275.378659,176.281473 287.563712,176.281473 C299.748765,176.281473 309.627424,186.156067 309.627424,198.336105" id="Fill-45" fill="#5CBF8A" sketch:type="MSShapeGroup"></path>
                <path d="M353.754848,198.336105 C353.754848,210.516143 343.876188,220.390736 331.691136,220.390736 C319.506083,220.390736 309.627424,210.516143 309.627424,198.336105 C309.627424,186.156067 319.506083,176.281473 331.691136,176.281473 C343.876188,176.281473 353.754848,186.156067 353.754848,198.336105" id="Fill-46" fill="#6673D1" sketch:type="MSShapeGroup"></path>
                <path d="M442.009695,198.336105 C442.009695,210.516143 432.131036,220.390736 419.945983,220.390736 C407.760931,220.390736 397.882271,210.516143 397.882271,198.336105 C397.882271,186.156067 407.760931,176.281473 419.945983,176.281473 C432.131036,176.281473 442.009695,186.156067 442.009695,198.336105" id="Fill-47" fill="#606AB1" sketch:type="MSShapeGroup"></path>
                <path d="M486.137119,198.336105 C486.137119,210.516143 476.25846,220.390736 464.073407,220.390736 C451.888355,220.390736 442.009695,210.516143 442.009695,198.336105 C442.009695,186.156067 451.888355,176.281473 464.073407,176.281473 C476.25846,176.281473 486.137119,186.156067 486.137119,198.336105" id="Fill-48" fill="#42C4E6" sketch:type="MSShapeGroup"></path>
                <path d="M399,287.054632 C399,274.874594 408.878659,265 421.063712,265 L465.191136,265 C477.376188,265 487.254848,274.874594 487.254848,287.054632 C487.254848,299.23467 477.376188,309.109264 465.191136,309.109264 L421.063712,309.109264 C408.878659,309.109264 399,299.23467 399,287.054632" id="Fill-50" fill="#6673D1" sketch:type="MSShapeGroup"></path>
                <path d="M443,287.054632 C443,274.874594 452.878659,265 465.063712,265 C477.248765,265 487.127424,274.874594 487.127424,287.054632 C487.127424,299.23467 477.248765,309.109264 465.063712,309.109264 C452.878659,309.109264 443,299.23467 443,287.054632" id="Fill-51" fill="#42C4E6" sketch:type="MSShapeGroup"></path>
                <path d="M355.209582,330.955017 C355.209582,318.774979 365.088241,308.900385 377.273294,308.900385 C389.458346,308.900385 399.337006,318.774979 399.337006,330.955017 C399.337006,343.135055 389.458346,353.009648 377.273294,353.009648 C365.088241,353.009648 355.209582,343.135055 355.209582,330.955017" id="Fill-52" fill="#6673D1" sketch:type="MSShapeGroup"></path>
                <path d="M355.209582,375.06428 C355.209582,362.884242 365.088241,353.009648 377.273294,353.009648 C389.458346,353.009648 399.337006,362.884242 399.337006,375.06428 C399.337006,387.244318 389.458346,397.117442 377.273294,397.117442 C365.088241,397.117442 355.209582,387.244318 355.209582,375.06428" id="Fill-53" fill="#42C4E6" sketch:type="MSShapeGroup"></path>
                <path d="M44.8628809,242.445368 C44.8628809,254.625406 34.9842216,264.5 22.799169,264.5 C10.6141163,264.5 0.735457064,254.625406 0.735457064,242.445368 C0.735457064,230.26533 10.6141163,220.390736 22.799169,220.390736 C34.9842216,220.390736 44.8628809,230.26533 44.8628809,242.445368" id="Fill-54" fill="#6673D1" sketch:type="MSShapeGroup"></path>
                <path d="M88.9903047,242.445368 C88.9903047,254.625406 79.1116454,264.5 66.9265928,264.5 C54.7415402,264.5 44.8628809,254.625406 44.8628809,242.445368 C44.8628809,230.26533 54.7415402,220.390736 66.9265928,220.390736 C79.1116454,220.390736 88.9903047,230.26533 88.9903047,242.445368" id="Fill-55" fill="#42C4E6" sketch:type="MSShapeGroup"></path>
                <path d="M133.117729,242.445368 C133.117729,254.625406 123.239069,264.5 111.054017,264.5 C98.868964,264.5 88.9903047,254.625406 88.9903047,242.445368 C88.9903047,230.26533 98.868964,220.390736 111.054017,220.390736 C123.239069,220.390736 133.117729,230.26533 133.117729,242.445368" id="Fill-56" fill="#6673D1" sketch:type="MSShapeGroup"></path>
                <path d="M177.245152,242.445368 C177.245152,254.625406 167.366493,264.5 155.18144,264.5 C142.996388,264.5 133.117729,254.625406 133.117729,242.445368 C133.117729,230.26533 142.996388,220.390736 155.18144,220.390736 C167.366493,220.390736 177.245152,230.26533 177.245152,242.445368" id="Fill-57" fill="#42C4E6" sketch:type="MSShapeGroup"></path>
                <path d="M309.627424,242.445368 C309.627424,254.625406 299.748765,264.5 287.563712,264.5 C275.378659,264.5 265.5,254.625406 265.5,242.445368 C265.5,230.26533 275.378659,220.390736 287.563712,220.390736 C299.748765,220.390736 309.627424,230.26533 309.627424,242.445368" id="Fill-60" fill="#F4F3F5" sketch:type="MSShapeGroup"></path>
                <path d="M397.882271,242.445368 C397.882271,254.625406 388.003612,264.5 375.81856,264.5 C363.633507,264.5 353.754848,254.625406 353.754848,242.445368 C353.754848,230.26533 363.633507,220.390736 375.81856,220.390736 C388.003612,220.390736 397.882271,230.26533 397.882271,242.445368" id="Fill-61" fill="#6673D1" sketch:type="MSShapeGroup"></path>
                <path d="M442.009695,242.445368 C442.009695,254.625406 432.131036,264.5 419.945983,264.5 C407.760931,264.5 397.882271,254.625406 397.882271,242.445368 C397.882271,230.26533 407.760931,220.390736 419.945983,220.390736 C432.131036,220.390736 442.009695,230.26533 442.009695,242.445368" id="Fill-62" fill="#F4F3F5" sketch:type="MSShapeGroup"></path>
                <path d="M530.127424,242.054632 C530.127424,254.23467 520.248765,264.109264 508.063712,264.109264 C495.878659,264.109264 486,254.23467 486,242.054632 C486,229.874594 495.878659,220 508.063712,220 C520.248765,220 530.127424,229.874594 530.127424,242.054632" id="Fill-64" fill="#42C4E6" sketch:type="MSShapeGroup"></path>
                <path d="M530.127424,419.054632 C530.127424,431.23614 520.248765,441.109264 508.063712,441.109264 C495.878659,441.109264 486,431.23614 486,419.054632 C486,406.876064 495.878659,397 508.063712,397 C520.248765,397 530.127424,406.876064 530.127424,419.054632" id="Fill-65" fill="#5CBF8A" sketch:type="MSShapeGroup"></path>
                <path d="M354,287.054632 C354,274.874594 363.878659,265 376.063712,265 C388.248765,265 398.127424,274.874594 398.127424,287.054632 C398.127424,299.23467 388.248765,309.109264 376.063712,309.109264 C363.878659,309.109264 354,299.23467 354,287.054632" id="Fill-68" fill="#42C4E6" sketch:type="MSShapeGroup"></path>
                <path d="M309.627424,286.554632 C309.627424,274.374594 319.506083,264.5 331.691136,264.5 C343.876188,264.5 353.754848,274.374594 353.754848,286.554632 C353.754848,298.73467 343.876188,308.609264 331.691136,308.609264 C319.506083,308.609264 309.627424,298.73467 309.627424,286.554632" id="Fill-69" fill="#6673D1" sketch:type="MSShapeGroup"></path>
                <path d="M265.5,286.554632 C265.5,274.374594 275.378659,264.5 287.563712,264.5 C299.748765,264.5 309.627424,274.374594 309.627424,286.554632 C309.627424,298.73467 299.748765,308.609264 287.563712,308.609264 C275.378659,308.609264 265.5,298.73467 265.5,286.554632" id="Fill-70" fill="#F4F3F5" sketch:type="MSShapeGroup"></path>
                <path d="M221.372576,286.554632 C221.372576,274.374594 231.251235,264.5 243.436288,264.5 C255.621341,264.5 265.5,274.374594 265.5,286.554632 C265.5,298.73467 255.621341,308.609264 243.436288,308.609264 C231.251235,308.609264 221.372576,298.73467 221.372576,286.554632" id="Fill-71" fill="#6673D1" sketch:type="MSShapeGroup"></path>
                <path d="M177.245152,375.06428 C177.245152,362.884242 187.123812,353.009648 199.308864,353.009648 C211.493917,353.009648 221.372576,362.884242 221.372576,375.06428 C221.372576,387.244318 211.493917,397.117442 199.308864,397.117442 C187.123812,397.117442 177.245152,387.244318 177.245152,375.06428" id="Fill-72" fill="#6673D1" sketch:type="MSShapeGroup"></path>
                <path d="M177.245152,286.554632 C177.245152,274.374594 187.123812,264.5 199.308864,264.5 C211.493917,264.5 221.372576,274.374594 221.372576,286.554632 C221.372576,298.73467 211.493917,308.609264 199.308864,308.609264 C187.123812,308.609264 177.245152,298.73467 177.245152,286.554632" id="Fill-73" fill="#6673D1" sketch:type="MSShapeGroup"></path>
            </g>
        </g>
    </g>
</svg>