<?xml version="1.0" encoding="UTF-8" standalone="no"?>
<svg width="1100px" height="680px" viewBox="0 0 1100 680" version="1.1" xmlns="http://www.w3.org/2000/svg" xmlns:xlink="http://www.w3.org/1999/xlink" xmlns:sketch="http://www.bohemiancoding.com/sketch/ns">
    <!-- Generator: Sketch 3.3.3 (12072) - http://www.bohemiancoding.com/sketch -->
    <title>art</title>
    <desc>Created with Sketch.</desc>
    <defs></defs>
    <g id="Page-1" stroke="none" stroke-width="1" fill="none" fill-rule="evenodd" sketch:type="MSPage">
        <g id="art" sketch:type="MSArtboardGroup">
            <g id="Art" sketch:type="MSLayerGroup" transform="translate(566.000000, 97.000000)">
                <path d="M222.954734,375.06428 C222.954734,387.244318 213.076075,397.118912 200.891022,397.118912 C188.70597,397.118912 178.82731,387.244318 178.82731,375.06428 C178.82731,362.884242 188.70597,353.009648 200.891022,353.009648 C213.076075,353.009648 222.954734,362.884242 222.954734,375.06428" id="Fill-1" fill="#4ABCD7" sketch:type="MSShapeGroup"></path>
                <path d="M245.018446,353.009648 C257.203499,353.009648 267.082158,362.884242 267.082158,375.06428 L267.082158,419.173544 C267.082158,431.353582 257.203499,441.228176 245.018446,441.228176 C232.833393,441.228176 222.954734,431.353582 222.954734,419.173544 L222.954734,375.06428 C222.954734,362.884242 232.833393,353.009648 245.018446,353.009648" id="Fill-2" fill="#F5F5F6" sketch:type="MSShapeGroup"></path>
                <path d="M199.063712,0 C211.248765,0 221.127424,9.87459382 221.127424,22.0546318 L221.127424,66.1638955 C221.127424,78.3439335 211.248765,88.2185273 199.063712,88.2185273 C186.878659,88.2185273 177,78.3439335 177,66.1638955 L177,22.0546318 C177,9.87459382 186.878659,0 199.063712,0" id="Fill-3" fill="#4ABCD7" sketch:type="MSShapeGroup"></path>
                <path d="M267.082158,375.06428 C267.082158,387.244318 257.203499,397.118912 245.018446,397.118912 C232.833393,397.118912 222.954734,387.244318 222.954734,375.06428 C222.954734,362.884242 232.833393,353.009648 245.018446,353.009648 C257.203499,353.009648 267.082158,362.884242 267.082158,375.06428" id="Fill-4" fill="#657BC5" sketch:type="MSShapeGroup"></path>
                <path d="M309.754848,66.0083135 C309.754848,78.1883515 299.876188,88.0629454 287.691136,88.0629454 L243.563712,88.0629454 C231.378659,88.0629454 221.5,78.1883515 221.5,66.0083135 C221.5,53.8282755 231.378659,43.9536817 243.563712,43.9536817 L287.691136,43.9536817 C299.876188,43.9536817 309.754848,53.8282755 309.754848,66.0083135" id="Fill-5" fill="#657BC5" sketch:type="MSShapeGroup"></path>
                <path d="M265.627424,66.0083135 C265.627424,78.1883515 255.748765,88.0629454 243.563712,88.0629454 C231.378659,88.0629454 221.5,78.1883515 221.5,66.0083135 C221.5,53.8282755 231.378659,43.9536817 243.563712,43.9536817 C255.748765,43.9536817 265.627424,53.8282755 265.627424,66.0083135" id="Fill-6" fill="#4ABCD7" sketch:type="MSShapeGroup"></path>
                <path d="M221.5,66.0083135 C221.5,78.1883515 211.621341,88.0629454 199.436288,88.0629454 C187.251235,88.0629454 177.372576,78.1883515 177.372576,66.0083135 C177.372576,53.8282755 187.251235,43.9536817 199.436288,43.9536817 C211.621341,43.9536817 221.5,53.8282755 221.5,66.0083135" id="Fill-7" fill="#F4F3F5" sketch:type="MSShapeGroup"></path>
                <path d="M354.127424,66.0546318 C354.127424,78.2346698 344.248765,88.1092637 332.063712,88.1092637 C319.878659,88.1092637 310,78.2346698 310,66.0546318 C310,53.8745938 319.878659,44 332.063712,44 C344.248765,44 354.127424,53.8745938 354.127424,66.0546318" id="Fill-8" fill="#55CC8A" sketch:type="MSShapeGroup"></path>
                <path d="M442.137119,110.117577 C442.137119,122.297615 432.25846,132.172209 420.073407,132.172209 C407.888355,132.172209 398.009695,122.297615 398.009695,110.117577 C398.009695,97.9375392 407.888355,88.0629454 420.073407,88.0629454 C432.25846,88.0629454 442.137119,97.9375392 442.137119,110.117577" id="Fill-9" fill="#657BC5" sketch:type="MSShapeGroup"></path>
                <path d="M533.333795,242.945368 C533.333795,255.125406 523.455136,265 511.270083,265 C499.08503,265 489.206371,255.125406 489.206371,242.945368 C489.206371,230.76533 499.08503,220.890736 511.270083,220.890736 C523.455136,220.890736 533.333795,230.76533 533.333795,242.945368" id="Fill-10" fill="#55CC8A" sketch:type="MSShapeGroup"></path>
                <path d="M486.127424,66.0546318 C486.127424,78.2346698 476.248765,88.1092637 464.063712,88.1092637 C451.878659,88.1092637 442,78.2346698 442,66.0546318 C442,53.8745938 451.878659,44 464.063712,44 C476.248765,44 486.127424,53.8745938 486.127424,66.0546318" id="Fill-11" fill="#F5F5F6" sketch:type="MSShapeGroup"></path>
                <path d="M133.245152,110.117577 C133.245152,122.297615 123.366493,132.172209 111.18144,132.172209 C98.9963878,132.172209 89.1177285,122.297615 89.1177285,110.117577 C89.1177285,97.9375392 98.9963878,88.0629454 111.18144,88.0629454 C123.366493,88.0629454 133.245152,97.9375392 133.245152,110.117577" id="Fill-13" fill="#657BC5" sketch:type="MSShapeGroup"></path>
                <path d="M177.372576,110.117577 C177.372576,122.297615 167.493917,132.172209 155.308864,132.172209 C143.123812,132.172209 133.245152,122.297615 133.245152,110.117577 C133.245152,97.9375392 143.123812,88.0629454 155.308864,88.0629454 C167.493917,88.0629454 177.372576,97.9375392 177.372576,110.117577" id="Fill-14" fill="#F5F5F6" sketch:type="MSShapeGroup"></path>
                <path d="M221.5,110.117577 C221.5,122.297615 211.621341,132.172209 199.436288,132.172209 C187.251235,132.172209 177.372576,122.297615 177.372576,110.117577 C177.372576,97.9375392 187.251235,88.0629454 199.436288,88.0629454 C211.621341,88.0629454 221.5,97.9375392 221.5,110.117577" id="Fill-15" fill="#657BC5" sketch:type="MSShapeGroup"></path>
                <path d="M353.882271,110.117577 C353.882271,122.296145 344.003612,132.172209 331.81856,132.172209 L243.563712,132.172209 C231.378659,132.172209 221.5,122.296145 221.5,110.117577 C221.5,97.9360689 231.378659,88.0629454 243.563712,88.0629454 L331.81856,88.0629454 C344.003612,88.0629454 353.882271,97.9360689 353.882271,110.117577" id="Fill-16" fill="#F5F5F6" sketch:type="MSShapeGroup"></path>
                <path d="M265.627424,110.117577 C265.627424,122.297615 255.748765,132.172209 243.563712,132.172209 C231.378659,132.172209 221.5,122.297615 221.5,110.117577 C221.5,97.9375392 231.378659,88.0629454 243.563712,88.0629454 C255.748765,88.0629454 265.627424,97.9375392 265.627424,110.117577" id="Fill-17" fill="#4ABCD7" sketch:type="MSShapeGroup"></path>
                <path d="M375.945983,176.281473 C363.760931,176.281473 353.882271,166.406879 353.882271,154.226841 L353.882271,110.117577 C353.882271,97.9375392 363.760931,88.0629454 375.945983,88.0629454 C388.131036,88.0629454 398.009695,97.9375392 398.009695,110.117577 L398.009695,154.226841 C398.009695,166.406879 388.131036,176.281473 375.945983,176.281473" id="Fill-18" fill="#55CC8A" sketch:type="MSShapeGroup"></path>
                <path d="M398.009695,110.117577 C398.009695,122.297615 388.131036,132.172209 375.945983,132.172209 C363.760931,132.172209 353.882271,122.297615 353.882271,110.117577 C353.882271,97.9375392 363.760931,88.0629454 375.945983,88.0629454 C388.131036,88.0629454 398.009695,97.9375392 398.009695,110.117577" id="Fill-19" fill="#F5F5F6" sketch:type="MSShapeGroup"></path>
                <path d="M443.50654,463.281337 C443.50654,475.462846 433.627881,485.335969 421.442828,485.335969 L377.315404,485.335969 C365.130352,485.335969 355.251693,475.462846 355.251693,463.281337 C355.251693,451.10277 365.130352,441.226705 377.315404,441.226705 L421.442828,441.226705 C433.627881,441.226705 443.50654,451.10277 443.50654,463.281337" id="Fill-20" fill="#4ABCD7" sketch:type="MSShapeGroup"></path>
                <path d="M399.379116,463.281337 C399.379116,475.462846 389.500457,485.335969 377.315404,485.335969 C365.130352,485.335969 355.251693,475.462846 355.251693,463.281337 C355.251693,451.10277 365.130352,441.226705 377.315404,441.226705 C389.500457,441.226705 399.379116,451.10277 399.379116,463.281337" id="Fill-21" fill="#657BC5" sketch:type="MSShapeGroup"></path>
                <path d="M531.846701,287.054632 C531.846701,299.23614 521.968042,309.109264 509.782989,309.109264 L465.655565,309.109264 C453.470512,309.109264 443.591853,299.23614 443.591853,287.054632 C443.591853,274.876064 453.470512,265 465.655565,265 L509.782989,265 C521.968042,265 531.846701,274.876064 531.846701,287.054632" id="Fill-22" fill="#4ABCD7" sketch:type="MSShapeGroup"></path>
                <path d="M487.719277,287.054632 C487.719277,299.23614 477.840618,309.109264 465.655565,309.109264 C453.470512,309.109264 443.591853,299.23614 443.591853,287.054632 C443.591853,274.876064 453.470512,265 465.655565,265 C477.840618,265 487.719277,274.876064 487.719277,287.054632" id="Fill-23" fill="#657BC5" sketch:type="MSShapeGroup"></path>
                <path d="M355.337006,419.172074 C355.337006,431.353582 345.458346,441.226705 333.273294,441.226705 C321.088241,441.226705 311.209582,431.353582 311.209582,419.172074 C311.209582,406.993506 321.088241,397.117442 333.273294,397.117442 C345.458346,397.117442 355.337006,406.993506 355.337006,419.172074" id="Fill-24" fill="#657BC5" sketch:type="MSShapeGroup"></path>
                <path d="M355,419.054632 C355,406.876064 364.878659,397 377.063712,397 C389.248765,397 399.127424,406.876064 399.127424,419.054632 C399.127424,431.23614 389.248765,441.109264 377.063712,441.109264 C364.878659,441.109264 355,431.23614 355,419.054632" id="Fill-25" fill="#657BC5" sketch:type="MSShapeGroup"></path>
                <path d="M309.754848,154.226841 C309.754848,166.405409 299.876188,176.281473 287.691136,176.281473 L199.436288,176.281473 C187.251235,176.281473 177.372576,166.405409 177.372576,154.226841 C177.372576,142.045333 187.251235,132.172209 199.436288,132.172209 L287.691136,132.172209 C299.876188,132.172209 309.754848,142.045333 309.754848,154.226841" id="Fill-26" fill="#F5F5F6" sketch:type="MSShapeGroup"></path>
                <path d="M177.372576,154.226841 C177.372576,166.405409 167.495388,176.281473 155.308864,176.281473 L67.0540166,176.281473 C54.8704349,176.281473 44.9903047,166.405409 44.9903047,154.226841 C44.9903047,142.045333 54.8704349,132.172209 67.0540166,132.172209 L155.308864,132.172209 C167.495388,132.172209 177.372576,142.045333 177.372576,154.226841" id="Fill-27" fill="#4ABCD7" sketch:type="MSShapeGroup"></path>
                <path d="M355.337006,330.955017 C355.337006,343.133584 345.459817,353.009648 333.273294,353.009648 L245.018446,353.009648 C232.834864,353.009648 222.954734,343.133584 222.954734,330.955017 C222.954734,318.773508 232.834864,308.900385 245.018446,308.900385 L333.273294,308.900385 C345.459817,308.900385 355.337006,318.773508 355.337006,330.955017" id="Fill-28" fill="#55CC8A" sketch:type="MSShapeGroup"></path>
                <path d="M221.5,154.226841 C221.5,166.406879 211.621341,176.281473 199.436288,176.281473 C187.251235,176.281473 177.372576,166.406879 177.372576,154.226841 C177.372576,142.046803 187.251235,132.172209 199.436288,132.172209 C211.621341,132.172209 221.5,142.046803 221.5,154.226841" id="Fill-29" fill="#657BC5" sketch:type="MSShapeGroup"></path>
                <path d="M331.81856,220.390736 C319.633507,220.390736 309.754848,210.516143 309.754848,198.336105 L309.754848,154.226841 C309.754848,142.046803 319.633507,132.172209 331.81856,132.172209 C344.003612,132.172209 353.882271,142.046803 353.882271,154.226841 L353.882271,198.336105 C353.882271,210.516143 344.003612,220.390736 331.81856,220.390736" id="Fill-30" fill="#4ABCD7" sketch:type="MSShapeGroup"></path>
                <path d="M67.0540166,308.609264 C54.868964,308.609264 44.9903047,298.73467 44.9903047,286.554632 L44.9903047,242.445368 C44.9903047,230.26533 54.868964,220.390736 67.0540166,220.390736 C79.2390693,220.390736 89.1177285,230.26533 89.1177285,242.445368 L89.1177285,286.554632 C89.1177285,298.73467 79.2390693,308.609264 67.0540166,308.609264" id="Fill-31" fill="#4ABCD7" sketch:type="MSShapeGroup"></path>
                <path d="M353.882271,154.226841 C353.882271,166.406879 344.003612,176.281473 331.81856,176.281473 C319.633507,176.281473 309.754848,166.406879 309.754848,154.226841 C309.754848,142.046803 319.633507,132.172209 331.81856,132.172209 C344.003612,132.172209 353.882271,142.046803 353.882271,154.226841" id="Fill-34" fill="#657BC5" sketch:type="MSShapeGroup"></path>
                <path d="M442.137119,154.226841 C442.137119,166.406879 432.25846,176.281473 420.073407,176.281473 C407.888355,176.281473 398.009695,166.406879 398.009695,154.226841 C398.009695,142.046803 407.888355,132.172209 420.073407,132.172209 C432.25846,132.172209 442.137119,142.046803 442.137119,154.226841" id="Fill-35" fill="#55CC8A" sketch:type="MSShapeGroup"></path>
                <path d="M177.372576,154.226841 C177.372576,166.406879 167.493917,176.281473 155.308864,176.281473 C143.123812,176.281473 133.245152,166.406879 133.245152,154.226841 C133.245152,142.046803 143.123812,132.172209 155.308864,132.172209 C167.493917,132.172209 177.372576,142.046803 177.372576,154.226841" id="Fill-37" fill="#F5F5F6" sketch:type="MSShapeGroup"></path>
                <path d="M399.464429,375.06428 C399.464429,362.884242 409.343089,353.009648 421.528141,353.009648 C433.713194,353.009648 443.591853,362.884242 443.591853,375.06428 C443.591853,387.244318 433.713194,397.117442 421.528141,397.117442 C409.343089,397.117442 399.464429,387.244318 399.464429,375.06428" id="Fill-38" fill="#657BC5" sketch:type="MSShapeGroup"></path>
                <path d="M267.082158,375.06428 C267.082158,362.884242 276.960817,353.009648 289.14587,353.009648 C301.330922,353.009648 311.209582,362.884242 311.209582,375.06428 C311.209582,387.244318 301.330922,397.117442 289.14587,397.117442 C276.960817,397.117442 267.082158,387.244318 267.082158,375.06428" id="Fill-39" fill="#657BC5" sketch:type="MSShapeGroup"></path>
                <path d="M355.337006,375.06428 C355.337006,362.884242 365.215665,353.009648 377.400717,353.009648 C389.58577,353.009648 399.464429,362.884242 399.464429,375.06428 C399.464429,387.244318 389.58577,397.117442 377.400717,397.117442 C365.215665,397.117442 355.337006,387.244318 355.337006,375.06428" id="Fill-40" fill="#55CC8A" sketch:type="MSShapeGroup"></path>
                <path d="M221.5,330.955017 C221.5,343.135055 211.621341,353.009648 199.436288,353.009648 C187.251235,353.009648 177.372576,343.135055 177.372576,330.955017 C177.372576,318.774979 187.251235,308.900385 199.436288,308.900385 C211.621341,308.900385 221.5,318.774979 221.5,330.955017" id="Fill-41" fill="#55CC8A" sketch:type="MSShapeGroup"></path>
                <path d="M133.245152,198.336105 C133.245152,210.516143 123.366493,220.390736 111.18144,220.390736 C98.9963878,220.390736 89.1177285,210.516143 89.1177285,198.336105 C89.1177285,186.156067 98.9963878,176.281473 111.18144,176.281473 C123.366493,176.281473 133.245152,186.156067 133.245152,198.336105" id="Fill-42" fill="#657BC5" sketch:type="MSShapeGroup"></path>
                <path d="M177.372576,198.336105 C177.372576,210.516143 167.493917,220.390736 155.308864,220.390736 C143.123812,220.390736 133.245152,210.516143 133.245152,198.336105 C133.245152,186.156067 143.123812,176.281473 155.308864,176.281473 C167.493917,176.281473 177.372576,186.156067 177.372576,198.336105" id="Fill-43" fill="#657BC5" sketch:type="MSShapeGroup"></path>
                <path d="M221.5,198.336105 C221.5,210.516143 211.621341,220.390736 199.436288,220.390736 C187.251235,220.390736 177.372576,210.516143 177.372576,198.336105 C177.372576,186.156067 187.251235,176.281473 199.436288,176.281473 C211.621341,176.281473 221.5,186.156067 221.5,198.336105" id="Fill-44" fill="#F5F5F6" sketch:type="MSShapeGroup"></path>
                <path d="M265.627424,198.336105 C265.627424,210.516143 255.748765,220.390736 243.563712,220.390736 C231.378659,220.390736 221.5,210.516143 221.5,198.336105 C221.5,186.156067 231.378659,176.281473 243.563712,176.281473 C255.748765,176.281473 265.627424,186.156067 265.627424,198.336105" id="Fill-45" fill="#55CC8A" sketch:type="MSShapeGroup"></path>
                <path d="M309.754848,198.336105 C309.754848,210.516143 299.876188,220.390736 287.691136,220.390736 C275.506083,220.390736 265.627424,210.516143 265.627424,198.336105 C265.627424,186.156067 275.506083,176.281473 287.691136,176.281473 C299.876188,176.281473 309.754848,186.156067 309.754848,198.336105" id="Fill-46" fill="#657BC5" sketch:type="MSShapeGroup"></path>
                <path d="M398.009695,198.336105 C398.009695,210.516143 388.131036,220.390736 375.945983,220.390736 C363.760931,220.390736 353.882271,210.516143 353.882271,198.336105 C353.882271,186.156067 363.760931,176.281473 375.945983,176.281473 C388.131036,176.281473 398.009695,186.156067 398.009695,198.336105" id="Fill-47" fill="#657BC5" sketch:type="MSShapeGroup"></path>
                <path d="M442.137119,198.336105 C442.137119,210.516143 432.25846,220.390736 420.073407,220.390736 C407.888355,220.390736 398.009695,210.516143 398.009695,198.336105 C398.009695,186.156067 407.888355,176.281473 420.073407,176.281473 C432.25846,176.281473 442.137119,186.156067 442.137119,198.336105" id="Fill-48" fill="#4ABCD7" sketch:type="MSShapeGroup"></path>
                <path d="M355,287.054632 C355,274.874594 364.878659,265 377.063712,265 L421.191136,265 C433.376188,265 443.254848,274.874594 443.254848,287.054632 C443.254848,299.23467 433.376188,309.109264 421.191136,309.109264 L377.063712,309.109264 C364.878659,309.109264 355,299.23467 355,287.054632" id="Fill-50" fill="#657BC5" sketch:type="MSShapeGroup"></path>
                <path d="M399,287.054632 C399,274.874594 408.878659,265 421.063712,265 C433.248765,265 443.127424,274.874594 443.127424,287.054632 C443.127424,299.23467 433.248765,309.109264 421.063712,309.109264 C408.878659,309.109264 399,299.23467 399,287.054632" id="Fill-51" fill="#4ABCD7" sketch:type="MSShapeGroup"></path>
                <path d="M311.209582,330.955017 C311.209582,318.774979 321.088241,308.900385 333.273294,308.900385 C345.458346,308.900385 355.337006,318.774979 355.337006,330.955017 C355.337006,343.135055 345.458346,353.009648 333.273294,353.009648 C321.088241,353.009648 311.209582,343.135055 311.209582,330.955017" id="Fill-52" fill="#657BC5" sketch:type="MSShapeGroup"></path>
                <path d="M311.209582,375.06428 C311.209582,362.884242 321.088241,353.009648 333.273294,353.009648 C345.458346,353.009648 355.337006,362.884242 355.337006,375.06428 C355.337006,387.244318 345.458346,397.117442 333.273294,397.117442 C321.088241,397.117442 311.209582,387.244318 311.209582,375.06428" id="Fill-53" fill="#4ABCD7" sketch:type="MSShapeGroup"></path>
                <path d="M133.245152,330.663895 C133.245152,342.843933 123.366493,352.718527 111.18144,352.718527 C98.9963878,352.718527 89.1177285,342.843933 89.1177285,330.663895 C89.1177285,318.483857 98.9963878,308.609264 111.18144,308.609264 C123.366493,308.609264 133.245152,318.483857 133.245152,330.663895" id="Fill-54" fill="#657BC5" sketch:type="MSShapeGroup"></path>
                <path d="M44.9903047,242.445368 C44.9903047,254.625406 35.1116454,264.5 22.9265928,264.5 C10.7415402,264.5 0.862880886,254.625406 0.862880886,242.445368 C0.862880886,230.26533 10.7415402,220.390736 22.9265928,220.390736 C35.1116454,220.390736 44.9903047,230.26533 44.9903047,242.445368" id="Fill-55" fill="#4ABCD7" sketch:type="MSShapeGroup"></path>
                <path d="M89.1177285,242.445368 C89.1177285,254.625406 79.2390693,264.5 67.0540166,264.5 C54.868964,264.5 44.9903047,254.625406 44.9903047,242.445368 C44.9903047,230.26533 54.868964,220.390736 67.0540166,220.390736 C79.2390693,220.390736 89.1177285,230.26533 89.1177285,242.445368" id="Fill-56" fill="#657BC5" sketch:type="MSShapeGroup"></path>
                <path d="M133.245152,242.445368 C133.245152,254.625406 123.366493,264.5 111.18144,264.5 C98.9963878,264.5 89.1177285,254.625406 89.1177285,242.445368 C89.1177285,230.26533 98.9963878,220.390736 111.18144,220.390736 C123.366493,220.390736 133.245152,230.26533 133.245152,242.445368" id="Fill-57" fill="#4ABCD7" sketch:type="MSShapeGroup"></path>
                <path d="M265.627424,242.445368 C265.627424,254.625406 255.748765,264.5 243.563712,264.5 C231.378659,264.5 221.5,254.625406 221.5,242.445368 C221.5,230.26533 231.378659,220.390736 243.563712,220.390736 C255.748765,220.390736 265.627424,230.26533 265.627424,242.445368" id="Fill-60" fill="#F5F5F6" sketch:type="MSShapeGroup"></path>
                <path d="M353.882271,242.445368 C353.882271,254.625406 344.003612,264.5 331.81856,264.5 C319.633507,264.5 309.754848,254.625406 309.754848,242.445368 C309.754848,230.26533 319.633507,220.390736 331.81856,220.390736 C344.003612,220.390736 353.882271,230.26533 353.882271,242.445368" id="Fill-61" fill="#657BC5" sketch:type="MSShapeGroup"></path>
                <path d="M398.009695,242.445368 C398.009695,254.625406 388.131036,264.5 375.945983,264.5 C363.760931,264.5 353.882271,254.625406 353.882271,242.445368 C353.882271,230.26533 363.760931,220.390736 375.945983,220.390736 C388.131036,220.390736 398.009695,230.26533 398.009695,242.445368" id="Fill-62" fill="#F4F3F5" sketch:type="MSShapeGroup"></path>
                <path d="M486.127424,242.054632 C486.127424,254.23467 476.248765,264.109264 464.063712,264.109264 C451.878659,264.109264 442,254.23467 442,242.054632 C442,229.874594 451.878659,220 464.063712,220 C476.248765,220 486.127424,229.874594 486.127424,242.054632" id="Fill-64" fill="#4ABCD7" sketch:type="MSShapeGroup"></path>
                <path d="M486.127424,419.054632 C486.127424,431.23614 476.248765,441.109264 464.063712,441.109264 C451.878659,441.109264 442,431.23614 442,419.054632 C442,406.876064 451.878659,397 464.063712,397 C476.248765,397 486.127424,406.876064 486.127424,419.054632" id="Fill-65" fill="#55CC8A" sketch:type="MSShapeGroup"></path>
                <path d="M310,287.054632 C310,274.874594 319.878659,265 332.063712,265 C344.248765,265 354.127424,274.874594 354.127424,287.054632 C354.127424,299.23467 344.248765,309.109264 332.063712,309.109264 C319.878659,309.109264 310,299.23467 310,287.054632" id="Fill-68" fill="#4ABCD7" sketch:type="MSShapeGroup"></path>
                <path d="M265.627424,286.554632 C265.627424,274.374594 275.506083,264.5 287.691136,264.5 C299.876188,264.5 309.754848,274.374594 309.754848,286.554632 C309.754848,298.73467 299.876188,308.609264 287.691136,308.609264 C275.506083,308.609264 265.627424,298.73467 265.627424,286.554632" id="Fill-69" fill="#657BC5" sketch:type="MSShapeGroup"></path>
                <path d="M221.5,286.554632 C221.5,274.374594 231.378659,264.5 243.563712,264.5 C255.748765,264.5 265.627424,274.374594 265.627424,286.554632 C265.627424,298.73467 255.748765,308.609264 243.563712,308.609264 C231.378659,308.609264 221.5,298.73467 221.5,286.554632" id="Fill-70" fill="#F5F5F6" sketch:type="MSShapeGroup"></path>
                <path d="M177.372576,286.554632 C177.372576,274.374594 187.251235,264.5 199.436288,264.5 C211.621341,264.5 221.5,274.374594 221.5,286.554632 C221.5,298.73467 211.621341,308.609264 199.436288,308.609264 C187.251235,308.609264 177.372576,298.73467 177.372576,286.554632" id="Fill-71" fill="#657BC5" sketch:type="MSShapeGroup"></path>
                <path d="M133.245152,375.06428 C133.245152,362.884242 143.123812,353.009648 155.308864,353.009648 C167.493917,353.009648 177.372576,362.884242 177.372576,375.06428 C177.372576,387.244318 167.493917,397.117442 155.308864,397.117442 C143.123812,397.117442 133.245152,387.244318 133.245152,375.06428" id="Fill-72" fill="#657BC5" sketch:type="MSShapeGroup"></path>
                <path d="M133.245152,286.554632 C133.245152,274.374594 143.123812,264.5 155.308864,264.5 C167.493917,264.5 177.372576,274.374594 177.372576,286.554632 C177.372576,298.73467 167.493917,308.609264 155.308864,308.609264 C143.123812,308.609264 133.245152,298.73467 133.245152,286.554632" id="Fill-73" fill="#657BC5" sketch:type="MSShapeGroup"></path>
            </g>
        </g>
    </g>
</svg>