<?xml version="1.0" encoding="UTF-8" standalone="no"?>
<svg width="268px" height="86px" viewBox="0 0 268 86" version="1.1" xmlns="http://www.w3.org/2000/svg" xmlns:xlink="http://www.w3.org/1999/xlink" xmlns:sketch="http://www.bohemiancoding.com/sketch/ns">
    <!-- Generator: Sketch 3.3.3 (12072) - http://www.bohemiancoding.com/sketch -->
    <title>art_inner</title>
    <desc>Created with Sketch.</desc>
    <defs>
        <rect id="path-1" x="0" y="0" width="279" height="111"></rect>
    </defs>
    <g id="Page-1" stroke="none" stroke-width="1" fill="none" fill-rule="evenodd" sketch:type="MSPage">
        <g id="Desktop-HD" sketch:type="MSArtboardGroup" transform="translate(-964.000000, -388.000000)">
            <g id="art_inner" sketch:type="MSLayerGroup" transform="translate(956.000000, 363.000000)">
                <mask id="mask-2" sketch:name="Mask" fill="white">
                    <use xlink:href="#path-1"></use>
                </mask>
                <use id="Mask" sketch:type="MSShapeGroup" xlink:href="#path-1"></use>
                <g id="Art" mask="url(#mask-2)">
                    <g transform="translate(160.263456, 276.763456) rotate(-45.000000) translate(-160.263456, -276.763456) translate(-38.736544, 29.263456)">
                        <g id="Rectangle-325-+-Fill-1-Copy-3" transform="translate(254.034934, 50.651508)">
                            <rect id="Rectangle-325" fill="#DDE0E7" sketch:type="MSShapeGroup" x="0.707106781" y="0.882789661" width="36" height="164.824317" rx="22"></rect>
                        </g>
                        <g id="Rectangle-325-+-Fill-1-Copy-6" transform="translate(288.784826, 8.864712)">
                            <rect id="Rectangle-325" fill="#42C4E6" sketch:type="MSShapeGroup" x="1.60363329" y="65.7798515" width="36" height="419.774736" rx="22"></rect>
                            <path d="M37.6036333,18.5475941 C37.6036333,28.4883941 29.5444333,36.5475941 19.6036333,36.5475941 C9.66283329,36.5475941 1.60363329,28.4883941 1.60363329,18.5475941 C1.60363329,8.6067941 9.66283329,0.547594105 19.6036333,0.547594105 C29.5444333,0.547594105 37.6036333,8.6067941 37.6036333,18.5475941" id="Fill-1-Copy-5" fill="#57CC8C" sketch:type="MSShapeGroup"></path>
                        </g>
                        <g id="Rectangle-325-+-Fill-1-Copy-7" transform="translate(288.562453, 137.984390)">
                            <rect id="Rectangle-325" fill="#71BEE8" sketch:type="MSShapeGroup" x="0.969693317" y="0.285885361" width="36" height="296.750275" rx="22"></rect>
                            <path d="M36.9696933,18.2858854 C36.9696933,28.2266854 28.9104933,36.2858854 18.9696933,36.2858854 C9.02889332,36.2858854 0.969693317,28.2266854 0.969693317,18.2858854 C0.969693317,8.34508536 9.02889332,0.285885361 18.9696933,0.285885361 C28.9104933,0.285885361 36.9696933,8.34508536 36.9696933,18.2858854" id="Fill-1" fill="#D8D8D8" sketch:type="MSShapeGroup"></path>
                        </g>
                        <g id="Rectangle-325-+-Fill-1-Copy-9" transform="translate(360.663505, 106.246292)">
                            <rect id="Rectangle-325" fill="#57CC8C" sketch:type="MSShapeGroup" x="0.89652651" y="6.82121026e-13" width="36" height="165" rx="22"></rect>
                            <path d="M36.8965265,18 C36.8965265,27.9408 28.8373265,36 18.8965265,36 C8.95572651,36 0.89652651,27.9408 0.89652651,18 C0.89652651,8.0592 8.95572651,6.82121026e-13 18.8965265,6.82121026e-13 C28.8373265,6.82121026e-13 36.8965265,8.0592 36.8965265,18" id="Fill-1" fill="#DDE0E7" sketch:type="MSShapeGroup"></path>
                        </g>
                        <g id="Rectangle-325-+-Fill-1-Copy-8" transform="translate(325.077719, 62.255781)">
                            <rect id="Rectangle-325" fill="#5B69CA" sketch:type="MSShapeGroup" x="1" y="0.753638504" width="36" height="409.246361" rx="22"></rect>
                        </g>
                        <g id="Rectangle-325-+-Fill-1-Copy-4" transform="translate(217.121320, 2.869874)">
                            <rect id="Rectangle-325" fill="#5B69CA" sketch:type="MSShapeGroup" x="0.89652651" y="0.0318100776" width="36" height="357.714078" rx="22"></rect>
                        </g>
                    </g>
                </g>
            </g>
        </g>
    </g>
</svg>