<?xml version="1.0" encoding="UTF-8" standalone="no"?>
<svg width="303px" height="83px" viewBox="0 0 303 83" version="1.1" xmlns="http://www.w3.org/2000/svg" xmlns:xlink="http://www.w3.org/1999/xlink" xmlns:sketch="http://www.bohemiancoding.com/sketch/ns">
    <!-- Generator: Sketch 3.3.3 (12072) - http://www.bohemiancoding.com/sketch -->
    <title>Art 2 Copy</title>
    <desc>Created with Sketch.</desc>
    <defs></defs>
    <g id="Page-1" stroke="none" stroke-width="1" fill="none" fill-rule="evenodd" sketch:type="MSPage">
        <g id="TECH" sketch:type="MSArtboardGroup" transform="translate(-849.000000, -132.000000)">
            <g id="Art-2-Copy" sketch:type="MSLayerGroup" transform="translate(1017.277741, 361.733585) rotate(-45.000000) translate(-1017.277741, -361.733585) translate(818.277741, 90.733585)">
                <g id="Rectangle-325-+-Fill-1-Copy-3" transform="translate(254.034934, 31.651508)" fill="#5B69CA" sketch:type="MSShapeGroup">
                    <rect id="Rectangle-325" x="0.707106781" y="0.172111543" width="36" height="164.824317" rx="22"></rect>
                </g>
                <g id="Rectangle-325-+-Fill-1-Copy-6" transform="translate(219.784826, 0.864712)" sketch:type="MSShapeGroup">
                    <rect id="Rectangle-325" fill="#DDE0E7" x="70.6036333" y="120.358777" width="36" height="419.774736" rx="22"></rect>
                    <path d="M36.600062,18.9964287 C36.600062,28.9372287 28.540862,36.9964287 18.600062,36.9964287 C8.65926195,36.9964287 0.600061954,28.9372287 0.600061954,18.9964287 C0.600061954,9.05562866 8.65926195,0.996428663 18.600062,0.996428663 C28.540862,0.996428663 36.600062,9.05562866 36.600062,18.9964287" id="Fill-1-Copy-5" fill="#5B69CA"></path>
                </g>
                <g id="Rectangle-325-+-Fill-1-Copy-7" transform="translate(288.562453, 188.984390)" sketch:type="MSShapeGroup">
                    <rect id="Rectangle-325" fill="#71BEE8" x="0.969693317" y="0.285885361" width="36" height="296.750275" rx="22"></rect>
                    <path d="M36.9696933,18.2858854 C36.9696933,28.2266854 28.9104933,36.2858854 18.9696933,36.2858854 C9.02889332,36.2858854 0.969693317,28.2266854 0.969693317,18.2858854 C0.969693317,8.34508536 9.02889332,0.285885361 18.9696933,0.285885361 C28.9104933,0.285885361 36.9696933,8.34508536 36.9696933,18.2858854" id="Fill-1" fill="#D8D8D8"></path>
                </g>
                <g id="Rectangle-325-+-Fill-1-Copy-9" transform="translate(360.663505, 185.246292)" fill="#42C4E6" sketch:type="MSShapeGroup">
                    <rect id="Rectangle-325" x="0.89652651" y="0.284271247" width="36" height="111.169287" rx="22"></rect>
                </g>
                <g id="Rectangle-325-+-Fill-1-Copy-8" transform="translate(325.077719, 99.255781)" sketch:type="MSShapeGroup">
                    <rect id="Rectangle-325" fill="#57CC8C" x="1" y="0.61150288" width="36" height="409.246361" rx="22"></rect>
                    <path d="M37,18.6115029 C37,28.5523029 28.9408,36.6115029 19,36.6115029 C9.0592,36.6115029 1,28.5523029 1,18.6115029 C1,8.67070288 9.0592,0.61150288 19,0.61150288 C28.9408,0.61150288 37,8.67070288 37,18.6115029" id="Fill-1-Copy-6" fill="#DDE0E7"></path>
                </g>
                <g id="Rectangle-325-+-Fill-1-Copy-4" transform="translate(217.121320, 53.869874)" fill="#42C4E6" sketch:type="MSShapeGroup">
                    <rect id="Rectangle-325" x="0.89652651" y="0.0318100776" width="36" height="357.714078" rx="22"></rect>
                </g>
            </g>
        </g>
    </g>
</svg>