<?xml version="1.0" encoding="UTF-8" standalone="no"?>
<svg width="278px" height="114px" viewBox="0 0 278 114" version="1.1" xmlns="http://www.w3.org/2000/svg" xmlns:xlink="http://www.w3.org/1999/xlink" xmlns:sketch="http://www.bohemiancoding.com/sketch/ns">
    <!-- Generator: Sketch 3.3.3 (12072) - http://www.bohemiancoding.com/sketch -->
    <title>Art 3</title>
    <desc>Created with Sketch.</desc>
    <defs></defs>
    <g id="Page-1" stroke="none" stroke-width="1" fill="none" fill-rule="evenodd" sketch:type="MSPage">
        <g id="TECH" sketch:type="MSArtboardGroup" transform="translate(-874.000000, -101.000000)">
            <g id="Art-3" sketch:type="MSLayerGroup" transform="translate(1030.712770, 375.168614) rotate(-45.000000) translate(-1030.712770, -375.168614) translate(831.712770, 123.168614)">
                <g id="Rectangle-325-+-Fill-1-Copy-3" transform="translate(254.034934, 50.651508)" fill="#57CC8C" sketch:type="MSShapeGroup">
                    <rect id="Rectangle-325" x="0" y="0.447760819" width="36" height="164.824317" rx="22"></rect>
                </g>
                <g id="Rectangle-325-+-Fill-1-Copy-6" transform="translate(288.784826, 36.864712)" sketch:type="MSShapeGroup">
                    <rect id="Rectangle-325" fill="#DDE0E7" x="1.60363329" y="46.3587773" width="36" height="419.774736" rx="22"></rect>
                    <path d="M36.8786797,18.5355339 C36.8786797,28.4763339 28.8194797,36.5355339 18.8786797,36.5355339 C8.93787966,36.5355339 0.878679656,28.4763339 0.878679656,18.5355339 C0.878679656,8.59473391 8.93787966,0.535533906 18.8786797,0.535533906 C28.8194797,0.535533906 36.8786797,8.59473391 36.8786797,18.5355339" id="Fill-1-Copy-5" fill="#5B69CA"></path>
                </g>
                <g id="Rectangle-325-+-Fill-1-Copy-7" transform="translate(288.562453, 150.984390)" sketch:type="MSShapeGroup">
                    <rect id="Rectangle-325" fill="#71BEE8" x="0.969693317" y="0.285885361" width="36" height="296.750275" rx="22"></rect>
                    <path d="M36.9696933,18.2858854 C36.9696933,28.2266854 28.9104933,36.2858854 18.9696933,36.2858854 C9.02889332,36.2858854 0.969693317,28.2266854 0.969693317,18.2858854 C0.969693317,8.34508536 9.02889332,0.285885361 18.9696933,0.285885361 C28.9104933,0.285885361 36.9696933,8.34508536 36.9696933,18.2858854" id="Fill-1" fill="#D8D8D8"></path>
                </g>
                <g id="Rectangle-325-+-Fill-1-Copy-9" transform="translate(360.663505, 147.246292)" fill="#42C4E6" sketch:type="MSShapeGroup">
                    <rect id="Rectangle-325" x="0.89652651" y="0.284271247" width="36" height="111.169287" rx="22"></rect>
                </g>
                <g id="Rectangle-325-+-Fill-1-Copy-8" transform="translate(325.077719, 17.255781)" fill="#57CC8C" sketch:type="MSShapeGroup">
                    <rect id="Rectangle-325" x="1" y="0.770882446" width="36" height="409.246361" rx="22"></rect>
                </g>
                <g id="Rectangle-325-+-Fill-1-Copy-4" transform="translate(217.121320, 0.869874)" sketch:type="MSShapeGroup">
                    <rect id="Rectangle-325" fill="#42C4E6" x="0.89652651" y="0.889674454" width="36" height="357.714078" rx="22"></rect>
                    <path d="M36.8965265,18.8896745 C36.8965265,28.8304745 28.8373265,36.8896745 18.8965265,36.8896745 C8.95572651,36.8896745 0.89652651,28.8304745 0.89652651,18.8896745 C0.89652651,8.94887445 8.95572651,0.889674454 18.8965265,0.889674454 C28.8373265,0.889674454 36.8965265,8.94887445 36.8965265,18.8896745" id="Fill-1-Copy-7" fill="#DDE0E7"></path>
                </g>
            </g>
        </g>
    </g>
</svg>