<?xml version="1.0" encoding="UTF-8" standalone="no"?>
<svg width="40px" height="46px" viewBox="0 0 40 46" version="1.1" xmlns="http://www.w3.org/2000/svg" xmlns:xlink="http://www.w3.org/1999/xlink">
    <!-- Generator: Sketch 3.7 (28169) - http://www.bohemiancoding.com/sketch -->
    <title>Event Icon</title>
    <desc>Created with Sketch.</desc>
    <defs>
        <rect id="path-1" x="0" y="5" width="40" height="40" rx="2"></rect>
        <mask id="mask-2" maskContentUnits="userSpaceOnUse" maskUnits="objectBoundingBox" x="0" y="0" width="40" height="40" fill="white">
            <use xlink:href="#path-1"></use>
        </mask>
        <rect id="path-3" x="29" y="0" width="2" height="10"></rect>
        <mask id="mask-4" maskContentUnits="userSpaceOnUse" maskUnits="objectBoundingBox" x="-1" y="-1" width="4" height="12">
            <rect x="28" y="-1" width="4" height="12" fill="white"></rect>
            <use xlink:href="#path-3" fill="black"></use>
        </mask>
        <rect id="path-5" x="9" y="0" width="2" height="10"></rect>
        <mask id="mask-6" maskContentUnits="userSpaceOnUse" maskUnits="objectBoundingBox" x="-1" y="-1" width="4" height="12">
            <rect x="8" y="-1" width="4" height="12" fill="white"></rect>
            <use xlink:href="#path-5" fill="black"></use>
        </mask>
    </defs>
    <g id="Page-1" stroke="none" stroke-width="1" fill="none" fill-rule="evenodd">
        <g id="hp_1" transform="translate(-309.000000, -631.000000)">
            <g id="Event-Icon" transform="translate(309.000000, 632.000000)">
                <use id="Rectangle-138" stroke="#5B6BC3" mask="url(#mask-2)" stroke-width="4" xlink:href="#path-1"></use>
                <path d="M1.5,17 L37.7900009,17" id="Line" stroke="#5B6BC3" stroke-width="2" stroke-linecap="square"></path>
                <g id="Rectangle-139">
                    <use fill="#5B6BC3" fill-rule="evenodd" xlink:href="#path-3"></use>
                    <use stroke="#E7E7E9" mask="url(#mask-4)" stroke-width="2" xlink:href="#path-3"></use>
                </g>
                <g id="Rectangle-139-Copy">
                    <use fill="#5B6BC3" fill-rule="evenodd" xlink:href="#path-5"></use>
                    <use stroke="#E7E7E9" mask="url(#mask-6)" stroke-width="2" xlink:href="#path-5"></use>
                </g>
                <rect id="Rectangle-140-Copy" fill="#5B69CA" x="12" y="21" width="4" height="4" rx="100"></rect>
                <rect id="Rectangle-140-Copy-2" fill="#5B69CA" x="18" y="21" width="4" height="4" rx="100"></rect>
                <rect id="Rectangle-140-Copy-3" fill="#5B69CA" x="24" y="21" width="4" height="4" rx="100"></rect>
                <rect id="Rectangle-140-Copy-4" fill="#5B69CA" x="30" y="21" width="4" height="4" rx="100"></rect>
                <rect id="Rectangle-140-Copy-9" fill="#5B69CA" x="6" y="28" width="4" height="4" rx="100"></rect>
                <rect id="Rectangle-140-Copy-8" fill="#5B69CA" x="12" y="28" width="4" height="4" rx="100"></rect>
                <rect id="Rectangle-140-Copy-7" fill="#5B69CA" x="18" y="28" width="4" height="4" rx="100"></rect>
                <rect id="Rectangle-140-Copy-6" fill="#5B69CA" x="24" y="28" width="4" height="4" rx="100"></rect>
                <rect id="Rectangle-140-Copy-5" fill="#5B69CA" x="30" y="28" width="4" height="4" rx="100"></rect>
                <rect id="Rectangle-140-Copy-14" fill="#5B69CA" x="6" y="35" width="4" height="4" rx="100"></rect>
                <rect id="Rectangle-140-Copy-13" fill="#5B69CA" x="12" y="35" width="4" height="4" rx="100"></rect>
                <rect id="Rectangle-140-Copy-12" fill="#5B69CA" x="18" y="35" width="4" height="4" rx="100"></rect>
            </g>
        </g>
    </g>
</svg>