<?xml version="1.0" encoding="utf-8"?>
<!-- Generator: Adobe Illustrator 22.1.0, SVG Export Plug-In . SVG Version: 6.00 Build 0)  -->
<svg version="1.1" id="Layer_1" xmlns="http://www.w3.org/2000/svg" xmlns:xlink="http://www.w3.org/1999/xlink" x="0px" y="0px"
	 viewBox="0 0 116.3 39.7" style="enable-background:new 0 0 116.3 39.7;" xml:space="preserve">
<style type="text/css">
	.st0{opacity:0.9;fill:#FFFFFF;enable-background:new    ;}
	.st1{fill:#FFFFFF;}
	.st2{fill:#57D1E5;}
	.st3{fill:#3A2D55;}
</style>
<title>Logo</title>
<desc>Created with Sketch.</desc>
<path id="Documentation" class="st0" d="M1.1,30.5h3.1c0.6,0,1.2,0.1,1.8,0.3c0.6,0.2,1.1,0.4,1.6,0.8c0.5,0.3,0.8,0.8,1.1,1.4
	c0.3,0.6,0.4,1.3,0.4,2s-0.2,1.4-0.4,2c-0.3,0.6-0.7,1-1.1,1.4c-0.5,0.3-1,0.7-1.6,0.8c-0.6,0.2-1.2,0.3-1.8,0.3H1.1V30.5z
	 M2.3,38.4h1.6c0.5,0,1-0.1,1.5-0.3c0.5-0.2,0.8-0.3,1.2-0.7c0.3-0.3,0.6-0.7,0.8-1.1C7.6,36,7.6,35.5,7.6,35c0-0.6-0.1-1-0.3-1.5
	c-0.2-0.4-0.4-0.8-0.8-1.1c-0.3-0.3-0.8-0.5-1.2-0.7c-0.5-0.1-1-0.2-1.5-0.2H2.3V38.4z M20.1,35c0,0.7-0.1,1.3-0.3,1.9
	c-0.3,0.6-0.6,1.1-1,1.5s-0.9,0.8-1.5,1c-0.6,0.3-1.3,0.3-1.9,0.3s-1.3-0.1-1.9-0.3c-0.6-0.3-1.1-0.6-1.5-1s-0.8-0.9-1-1.5
	c-0.3-0.6-0.3-1.2-0.3-1.9c0-0.7,0.1-1.3,0.3-1.9c0.3-0.6,0.6-1.1,1-1.5s0.9-0.8,1.5-0.9c0.6-0.3,1.2-0.3,1.9-0.3
	c0.7,0,1.3,0.1,1.9,0.3c0.6,0.3,1.1,0.6,1.5,0.9s0.8,0.9,1,1.5C20,33.7,20.1,34.2,20.1,35z M18.7,35c0-0.5-0.1-0.9-0.3-1.4
	c-0.2-0.4-0.4-0.8-0.7-1.2c-0.3-0.3-0.7-0.6-1.1-0.8c-0.4-0.2-0.9-0.3-1.4-0.3s-1,0.1-1.4,0.3c-0.4,0.2-0.8,0.4-1.1,0.8
	c-0.3,0.3-0.5,0.7-0.7,1.2c-0.2,0.4-0.3,0.9-0.3,1.4c0,0.5,0.1,1,0.3,1.4c0.2,0.4,0.4,0.8,0.7,1.2c0.3,0.3,0.7,0.6,1.1,0.8
	c0.4,0.2,0.8,0.3,1.4,0.3c0.5,0,1-0.1,1.4-0.3c0.4-0.2,0.8-0.4,1.1-0.8c0.3-0.3,0.5-0.7,0.7-1.2S18.7,35.5,18.7,35z M29.8,38.1
	c-0.3,0.5-0.8,0.8-1.3,1.2c-0.6,0.3-1.3,0.4-2,0.4c-0.7,0-1.3-0.1-1.9-0.3c-0.6-0.3-1.1-0.6-1.5-1c-0.4-0.4-0.8-0.9-1-1.5
	c-0.3-0.6-0.3-1.2-0.3-1.9c0-0.7,0.1-1.3,0.3-1.9s0.6-1.1,1-1.5c0.4-0.4,0.9-0.8,1.5-0.9c0.6-0.2,1.3-0.3,1.9-0.3
	c0.3,0,0.6,0,0.9,0.1c0.3,0.1,0.6,0.2,0.9,0.3c0.3,0.1,0.6,0.3,0.8,0.4c0.3,0.2,0.4,0.3,0.6,0.6l-1,0.8c-0.3-0.3-0.5-0.6-0.9-0.8
	s-0.8-0.3-1.3-0.3c-0.5,0-1,0.1-1.4,0.3s-0.8,0.4-1.1,0.8c-0.3,0.3-0.5,0.7-0.7,1.2C23,33.9,23,34.4,23,34.9c0,0.5,0.1,1,0.3,1.4
	c0.2,0.4,0.4,0.8,0.7,1.2c0.3,0.3,0.7,0.6,1.1,0.8s0.9,0.3,1.4,0.3s1-0.1,1.3-0.3c0.4-0.2,0.8-0.5,1-0.9L29.8,38.1z M34.7,39.7
	c-0.6,0-1.1-0.1-1.5-0.3c-0.4-0.2-0.8-0.5-1.1-0.8c-0.3-0.3-0.5-0.7-0.7-1.2c-0.2-0.4-0.2-0.8-0.2-1.3v-5.6h1.3v5.6
	c0,0.3,0,0.6,0.1,0.9c0.1,0.3,0.2,0.6,0.3,0.8c0.2,0.3,0.4,0.4,0.7,0.6c0.3,0.2,0.7,0.3,1.1,0.3s0.8-0.1,1.1-0.3
	c0.3-0.2,0.5-0.3,0.7-0.6c0.2-0.3,0.3-0.5,0.3-0.8c0.1-0.3,0.1-0.6,0.1-0.9v-5.6h1.3v5.6c0,0.4-0.1,0.9-0.2,1.3
	c-0.2,0.4-0.3,0.8-0.7,1.2s-0.7,0.6-1.1,0.8S35.3,39.7,34.7,39.7z M45.2,37.4L45.2,37.4l2.7-6.9h1.9v9h-1.3V32l0,0l-3,7.6h-0.8
	L41.8,32l0,0v7.6h-1.3v-9.1h1.9L45.2,37.4z M53.6,38.4h4.7v1.1h-6v-9h5.8v1.1h-4.5v2.7h4.2v1.1h-4.2V38.4z M66.5,37.7L66.5,37.7
	v-7.2h1.3v9h-1.6l-4.7-7.3l0,0v7.3h-1.3v-9h1.7L66.5,37.7z M73.4,39.5h-1.3v-7.9h-2.9v-1.1h7.1v1.1h-2.9L73.4,39.5L73.4,39.5z
	 M77.4,39.5H76l3.9-9H81l3.9,9h-1.4l-0.9-2.2h-4.2L77.4,39.5z M78.7,36.2h3.4L80.4,32L78.7,36.2z M88.7,39.5h-1.3v-7.9h-2.9v-1.1
	h7.1v1.1h-2.9L88.7,39.5L88.7,39.5z M94.3,39.5H93v-9h1.3V39.5z M105.8,35c0,0.7-0.1,1.3-0.3,1.9c-0.3,0.6-0.6,1.1-1,1.5
	c-0.4,0.4-0.9,0.8-1.5,1c-0.6,0.3-1.3,0.3-1.9,0.3s-1.3-0.1-1.9-0.3c-0.6-0.3-1.1-0.6-1.5-1c-0.4-0.4-0.8-0.9-1-1.5
	s-0.3-1.2-0.3-1.9c0-0.7,0.1-1.3,0.3-1.9c0.3-0.6,0.6-1.1,1-1.5c0.4-0.4,0.9-0.8,1.5-0.9c0.6-0.3,1.2-0.3,1.9-0.3
	c0.7,0,1.3,0.1,1.9,0.3c0.6,0.3,1.1,0.6,1.5,0.9c0.4,0.3,0.8,0.9,1,1.5C105.7,33.7,105.8,34.2,105.8,35z M104.4,35
	c0-0.5-0.1-0.9-0.3-1.4c-0.2-0.5-0.4-0.8-0.7-1.2c-0.3-0.3-0.7-0.6-1.1-0.8c-0.4-0.2-0.9-0.3-1.4-0.3c-0.5,0-1,0.1-1.4,0.3
	c-0.4,0.2-0.8,0.4-1.1,0.8c-0.3,0.3-0.5,0.7-0.7,1.2s-0.3,0.9-0.3,1.4c0,0.5,0.1,1,0.3,1.4c0.2,0.4,0.4,0.8,0.7,1.2
	c0.3,0.3,0.7,0.6,1.1,0.8c0.4,0.2,0.8,0.3,1.4,0.3c0.5,0,1-0.1,1.4-0.3c0.4-0.2,0.8-0.4,1.1-0.8c0.3-0.3,0.5-0.7,0.7-1.2
	S104.4,35.5,104.4,35z M114.1,37.7L114.1,37.7v-7.2h1.3v9h-1.6l-4.8-7.3l0,0v7.3h-1.2v-9h1.7L114.1,37.7z"/>
<g>
	<path class="st1" d="M33.8,12.1c0-0.9,1-1.2,1.8-1.2c0.6,0,1.5,0.3,1.9,0.8l1.8-2c-1-0.9-2.3-1.2-3.6-1.2c-2.3,0-4.5,1.3-4.5,3.9
		c0,4,5.6,2.8,5.6,5c0,0.8-1,1.2-1.8,1.2c-0.9,0-1.7-0.4-2.3-1.1l-1.9,2c1.1,1,2.5,1.5,4,1.5c2.4,0,4.6-1.3,4.6-3.9
		C39.2,12.8,33.8,14.2,33.8,12.1"/>
	<path class="st1" d="M47.6,14.7c0-2.2,1.5-3.8,3.4-3.8c1,0,1.7,0.4,2.2,1l2-1.6c-1-1.3-2.7-1.7-4-1.7c-3.7,0-6.4,2.4-6.4,6.2
		c0,3.8,2.7,6.2,6.4,6.2c1.6,0,3.3-0.7,4.3-2.1l-2.2-1.6C52.9,18,52,18.5,51,18.5C49.1,18.5,47.6,16.9,47.6,14.7"/>
	<polygon class="st1" points="66.9,15.5 71.4,8.7 68.3,8.7 65.6,13.2 63.1,8.7 59.8,8.7 64.3,15.5 64.3,20.6 66.9,20.6 	"/>
	<polygon class="st1" points="76.7,20.6 84.2,20.6 84.2,18.2 79.3,18.2 79.3,8.7 76.7,8.7 	"/>
	<polygon class="st1" points="90.1,20.6 97.6,20.6 97.6,18.2 92.7,18.2 92.7,8.7 90.1,8.7 	"/>
	<polygon class="st1" points="114.6,20.6 109.4,8.7 107.3,8.7 102.1,20.6 105,20.6 106,18.1 106.8,15.9 108.3,12.2 109.7,15.9 
		110.6,18.1 111.6,20.6 	"/>
</g>
<g>
	<path class="st2" d="M11.2,0.2C5,0.2,0.6,4.2,0.6,9.7c0,2.7,2.8,15.7,2.8,15.7c0.2,0.8,0.9,1.3,1.7,1.2c0.2,0,0.3-0.1,0.5-0.2
		l0.1,0c0.3,0.2,0.6,0.2,0.9,0.2c0.3,0,0.5-0.1,0.7-0.3l0.3,0c0.3,0.2,0.6,0.3,1,0.3c0.4,0,0.7-0.2,1-0.4l0.6,0
		c0.3,0.3,0.6,0.5,1.1,0.5c0.4,0,0.8-0.2,1.1-0.5l0.6,0c0.2,0.2,0.5,0.4,0.9,0.4c0.4,0,0.8-0.1,1.1-0.3l0.4,0
		c0.2,0.1,0.4,0.2,0.6,0.3c0.3,0.1,0.6,0,0.9-0.1c0.1,0.1,0.3,0.1,0.4,0.1c0.8,0.1,1.6-0.4,1.7-1.2c0,0,2.8-13,2.8-15.7
		C21.9,4.2,17.5,0.2,11.2,0.2z"/>
	<g>
		<circle class="st1" cx="7.8" cy="8.8" r="4.8"/>
		<path class="st3" d="M7.8,13.8c-2.8,0-5-2.2-5-5s2.2-5,5-5c2.8,0,5,2.2,5,5S10.5,13.8,7.8,13.8z M7.8,4.3c-2.5,0-4.5,2-4.5,4.5
			s2,4.5,4.5,4.5c2.5,0,4.5-2,4.5-4.5S10.3,4.3,7.8,4.3z"/>
	</g>
	<path class="st3" d="M8.8,5.6c-0.8,0.2-1,2-0.5,2.5c0.3,0.3,1,0.4,1,0.7c0,0.2-0.7,0.3-1,0.7c-0.5,0.5-0.3,2.3,0.5,2.5
		c1,0.2,2.5-1,2.5-3.1S9.7,5.5,8.8,5.6z"/>
	<path class="st1" d="M5.4,15.2c0.2,0.5,0.7,1.4,1.3,1.3c0.3-0.1,0.5-0.5,0.5-1.1"/>
	<path class="st1" d="M9.7,14.8c0.2,0.7,0.3,1.1,0.8,1.1s1.1-0.7,1-1.8"/>
	<path class="st3" d="M13.9,12.6c-0.2-0.2-0.5-0.4-0.8-0.5l0,0c0,0,0,0,0,0c-0.1,0-0.3,0.1-0.3,0.2c0,0.1,0.1,0.3,0.2,0.3
		c0.1,0,0.3,0.1,0.4,0.1c-1.3,0.8-2.7,1.5-4.1,1.8c-1.5,0.4-3.1,0.4-4.7,0.2c-0.1,0-0.2,0.1-0.2,0.2c0,0.1,0.1,0.2,0.2,0.2
		c0.2,0,0.5,0.1,0.7,0.1c0,0,0,0,0,0c0.2,0.6,0.7,1.5,1.4,1.5c0.1,0,0.1,0,0.2,0c0.3-0.1,0.7-0.3,0.7-1.4c0,0,0,0,0,0
		c0.6-0.1,1.2-0.1,1.8-0.3c0.1,0,0.1,0,0.2,0c0.1,0.6,0.4,1.2,1,1.2c0.3,0,0.6-0.2,0.8-0.4c0.2-0.2,0.5-0.7,0.4-1.6
		c0.7-0.3,1.3-0.7,2-1.1c0.1,0.1,0.1,0.2,0.1,0.3l0,0c0,0.1,0.1,0.1,0.2,0.1c0.1,0,0.2-0.1,0.2-0.2C14.2,13.1,14.1,12.8,13.9,12.6z
		 M7,15.4c0,0.5-0.1,0.9-0.3,0.9c-0.4,0.1-0.8-0.5-1-0.9C6.2,15.4,6.6,15.4,7,15.4C7,15.3,7,15.3,7,15.4z M11,15.5
		c-0.1,0.2-0.3,0.2-0.4,0.2c-0.2,0-0.4-0.2-0.5-0.9c0.4-0.1,0.9-0.3,1.3-0.4C11.3,14.8,11.2,15.2,11,15.5z"/>
	<g>
		<path class="st3" d="M19.2,2.7C17.2,1,14.4,0,11.3,0C8.2,0,5.5,1,3.5,2.7c-2,1.8-3.1,4.3-3.1,7c0,2.7,2.7,15.2,2.8,15.8
			c0.2,0.8,0.9,1.4,1.7,1.4c0.1,0,0.2,0,0.3,0c0.2,0,0.3-0.1,0.5-0.2c0.3,0.2,0.7,0.2,1.1,0.1c0.3-0.1,0.5-0.2,0.8-0.3
			c0.2,0.2,0.4,0.3,0.7,0.3c0.4,0.1,0.8,0.1,1.2-0.1c0.3-0.1,0.5-0.3,0.6-0.5c0.1,0.2,0.3,0.3,0.5,0.4c0.1,0.1,0.3,0.2,0.4,0.2
			c0.2,0,0.3,0.1,0.5,0.1c0.2,0,0.3,0,0.5-0.1c0.2,0,0.3-0.1,0.4-0.2c0.1-0.1,0.3-0.2,0.4-0.3c0,0,0.1-0.1,0.1-0.1c0,0,0,0,0,0
			c0.3,0.3,0.7,0.6,1.1,0.6c0.4,0.1,0.9,0,1.3-0.3c0,0,0.1,0,0.1-0.1c0.2,0.2,0.5,0.3,0.7,0.3c0.2,0,0.4,0.1,0.6,0
			c0.2,0,0.3-0.1,0.5-0.1c0.1,0.1,0.3,0.1,0.4,0.1c0.9,0.2,1.8-0.4,2-1.4c0.1-0.5,2.8-13.1,2.8-15.7C22.2,7,21.1,4.5,19.2,2.7z
			 M18.9,25.4c-0.1,0.6-0.7,1-1.4,1c0.1-0.1,0.2-0.3,0.3-0.4c0.1-0.2,0.2-0.3,0.2-0.5l0.1-0.5l0.3-1.9c0.1-0.6,0.2-1.3,0.3-1.9
			c0-0.1,0-0.2-0.1-0.2c-0.1,0-0.2,0-0.2,0.1c-0.1,0.6-0.3,1.3-0.4,1.9l-0.4,1.9l-0.1,0.5c0,0.1-0.1,0.3-0.1,0.4
			c-0.1,0.1-0.1,0.2-0.2,0.3c-0.1,0.1-0.2,0.2-0.3,0.2c-0.1,0.1-0.2,0.1-0.4,0.1c-0.1,0-0.3,0-0.4,0c-0.2,0-0.3-0.1-0.5-0.2
			c0.1-0.2,0.2-0.4,0.3-0.6c0-0.1,0-0.1,0-0.2c0,0,0-0.1,0-0.1l0-0.1l0-0.3l0.1-0.6l0.1-1.1c0.1-0.7,0.1-1.5,0.2-2.2
			c0-0.1-0.1-0.2-0.1-0.2c-0.1,0-0.2,0.1-0.2,0.1c-0.1,0.7-0.2,1.5-0.3,2.2l-0.1,1.1l-0.1,0.6c0,0.2,0,0.4-0.1,0.5
			c-0.1,0.3-0.3,0.6-0.5,0.7c-0.3,0.2-0.6,0.2-0.9,0.2c-0.3,0-0.6-0.2-0.8-0.4c0-0.1-0.1-0.1-0.1-0.2c0-0.1,0-0.2,0.1-0.2
			c0-0.2,0-0.3,0-0.5l0-0.8c0-0.6,0-1.1,0-1.7c0-0.6,0-1.1,0-1.7c0-0.1-0.1-0.2-0.2-0.2c-0.1,0-0.2,0.1-0.2,0.2
			c0,0.5-0.1,1.1-0.1,1.6c0,0.5-0.1,1.1-0.1,1.6l0,0.8c0,0.1,0,0.1,0,0.2c0,0.1,0,0.1,0,0.2c0,0.1-0.1,0.2-0.1,0.3
			c-0.2,0.4-0.7,0.7-1.1,0.7c-0.1,0-0.2,0-0.3,0c-0.1,0-0.2-0.1-0.3-0.1c-0.2-0.1-0.4-0.3-0.5-0.5c-0.1-0.1-0.1-0.2-0.1-0.3
			c0-0.1,0-0.2,0-0.4l0-0.8c0-0.5,0-1.1-0.1-1.6c0-0.5-0.1-1.1-0.1-1.6c0-0.1-0.1-0.2-0.2-0.2c-0.1,0-0.2,0.1-0.2,0.2
			c0,0.6,0,1.1,0,1.7c0,0.6,0,1.1,0,1.7l0,0.8c0,0.1,0,0.3,0,0.5c0,0.1,0,0.2,0.1,0.2c-0.1,0.2-0.3,0.4-0.6,0.5
			c-0.3,0.1-0.5,0.1-0.8,0.1c-0.3-0.1-0.5-0.2-0.7-0.5c-0.1-0.1-0.2-0.2-0.2-0.4c0-0.1,0-0.1,0-0.2c0,0,0-0.1,0-0.1l0-0.1l-0.3-2
			c-0.1-0.7-0.2-1.3-0.3-2c0-0.1-0.1-0.2-0.2-0.1c-0.1,0-0.2,0.1-0.2,0.2c0,0.7,0.1,1.4,0.2,2l0.2,2l0,0.1c0,0,0,0.1,0,0.1
			c0,0.1,0,0.2,0.1,0.3C7,25.8,7.1,26,7.2,26.1c-0.1,0.1-0.3,0.2-0.5,0.2c-0.3,0-0.5,0-0.8-0.1c-0.2-0.1-0.4-0.3-0.6-0.5
			c-0.1-0.1-0.1-0.2-0.1-0.4l-0.1-0.5L4.8,23c-0.1-0.6-0.3-1.3-0.4-1.9C4.3,21,4.3,21,4.2,21C4.1,21,4,21.1,4,21.2
			c0.1,0.6,0.2,1.3,0.3,1.9L4.6,25l0.1,0.5c0,0.2,0.1,0.4,0.2,0.5c0.1,0.2,0.2,0.3,0.3,0.4c0,0,0,0-0.1,0c-0.7,0.1-1.3-0.3-1.4-1
			c0-0.1-2.8-13-2.8-15.6c0-2.6,1-5,2.9-6.7c1.9-1.7,4.5-2.6,7.5-2.6c3,0,5.6,0.9,7.5,2.6c1.9,1.7,2.9,4,2.9,6.7
			C21.7,12.4,19,25.3,18.9,25.4z"/>
	</g>
</g>
</svg>
