<?xml version="1.0" encoding="UTF-8" standalone="no"?>
<svg width="217px" height="102px" viewBox="0 0 217 102" version="1.1" xmlns="http://www.w3.org/2000/svg" xmlns:xlink="http://www.w3.org/1999/xlink">
    <!-- Generator: Sketch 41.2 (35397) - http://www.bohemiancoding.com/sketch -->
    <title>Logo</title>
    <desc>Created with Sketch.</desc>
    <defs></defs>
    <g id="Page-1" stroke="none" stroke-width="1" fill="none" fill-rule="evenodd">
        <g id="Logo">
            <g id="logo">
                <g id="Page-1">
                    <g id="HP">
                        <g id="logo">
                            <path d="M90.2985714,18.1637857 C93.0265714,20.5375 93.3155357,24.6726786 90.9440357,27.4028929 C88.5714286,30.132 84.4351429,30.4209643 81.7060357,28.0483571 C78.9758214,25.6746429 78.6868571,21.5394643 81.0594643,18.80925 C83.4320714,16.0801429 87.5683571,15.7922857 90.2985714,18.1637857" id="Fill-1" fill="#4BBCD7"></path>
                            <path d="M80.3973929,29.5529643 C82.5806786,31.4506071 82.8120714,34.7609643 80.9144286,36.9431429 C79.0156786,39.1275357 75.7075357,39.3589286 73.52425,37.4612857 C71.3398571,35.5614286 71.1095714,32.2543929 73.0072143,30.07 C74.9048571,27.8867143 78.2141071,27.6553214 80.3973929,29.5529643" id="Fill-2" fill="#56CC8A"></path>
                            <path d="M72.0107857,39.2006071 C73.7589643,40.7196071 73.9438571,43.3656786 72.42375,45.11275 C70.9058571,46.8598214 68.2586786,47.0447143 66.5127143,45.5268214 C64.76675,44.0078214 64.58075,41.3606429 66.09975,39.6135714 C67.6176429,37.8676071 70.2637143,37.6816071 72.0107857,39.2006071" id="Fill-3" fill="#FFFFFF"></path>
                            <path d="M64.9427857,47.1454643 C66.34,48.36 66.4883571,50.4779643 65.2738214,51.8740714 C64.0592857,53.2723929 61.9413214,53.42075 60.5441071,52.2062143 C59.1457857,50.9916786 58.9985357,48.8737143 60.2130714,47.4765 C61.4276071,46.0792857 63.5455714,45.9309286 64.9427857,47.1454643" id="Fill-4" fill="#FFFFFF"></path>
                            <path d="M58.3087857,54.9641071 C59.427,55.9350714 59.5454643,57.6301071 58.5733929,58.7472143 C57.6013214,59.8643214 55.9073929,59.9838929 54.7891786,59.0129286 C53.6720714,58.0408571 53.5536071,56.3469286 54.5245714,55.2287143 C55.4966429,54.1093929 57.1905714,53.9920357 58.3087857,54.9641071" id="Fill-5" fill="#FFFFFF"></path>
                            <path d="M52.6745357,61.4453214 C53.5691071,62.2225357 53.6632143,63.5776786 52.886,64.4711429 C52.1087857,65.3668214 50.7536429,65.4620357 49.8590714,64.6837143 C48.9645,63.9065 48.8703929,62.5513571 49.6476071,61.6567857 C50.4248214,60.7622143 51.7799643,60.6681071 52.6745357,61.4453214" id="Fill-6" fill="#FFFFFF"></path>
                            <path d="M22.1096429,96.6059643 C23.5068571,97.8205 25.6248214,97.6721429 26.8393571,96.2749286 C28.0538929,94.8777143 27.9066429,92.75975 26.5083214,91.5452143 C25.1111071,90.3306786 22.9931429,90.4801429 21.7786071,91.87625 C20.5640714,93.2734643 20.7124286,95.3914286 22.1096429,96.6059643" id="Fill-7" fill="#4BBCD7"></path>
                            <path d="M28.9052857,88.7873214 C30.0235,89.7593929 31.7174286,89.6420357 32.6895,88.5238214 C33.6604643,87.4045 33.542,85.7116786 32.426,84.7396071 C31.3066786,83.7675357 29.6138571,83.8871071 28.6417857,85.0031071 C27.6686071,86.1224286 27.7881786,87.81525 28.9052857,88.7873214" id="Fill-8" fill="#56CC8A"></path>
                            <path d="M34.5395357,82.3072143 C35.4341071,83.0833214 36.78925,82.9892143 37.5675714,82.0946429 C38.3436786,81.2011786 38.2495714,79.8449286 37.355,79.0677143 C36.4615357,78.2905 35.1052857,78.3857143 34.3280714,79.2791786 C33.5508571,80.17375 33.6449643,81.53 34.5395357,82.3072143" id="Fill-9" fill="#FFFFFF"></path>
                            <path d="M1.28539286,35.0853571 C3.18192857,32.9020714 6.49228571,32.6706786 8.67446429,34.5694286 C10.8588571,36.4670714 11.09025,39.7752143 9.19260714,41.9585 C7.29385714,44.1428929 3.98571429,44.3731786 1.80132143,42.4755357 C-0.380857143,40.5778929 -0.61225,37.2686429 1.28539286,35.0853571" id="Fill-10" fill="#657BC5"></path>
                            <path d="M10.9330357,43.4719643 C12.4509286,41.7237857 15.097,41.5388929 16.8440714,43.059 C18.59225,44.5768929 18.7760357,47.2229643 17.2581429,48.9700357 C15.7391429,50.7171071 13.0919643,50.9031071 11.3448929,49.383 C9.59892857,47.8651071 9.41292857,45.2190357 10.9330357,43.4719643" id="Fill-11" fill="#4BBCD7"></path>
                            <path d="M18.8767857,50.3783214 C20.0913214,48.98 22.2092857,48.8316429 23.6065,50.0472857 C25.0037143,51.2618214 25.1520714,53.3797857 23.9375357,54.777 C22.723,56.1742143 20.6050357,56.3225714 19.2078214,55.1069286 C17.8106071,53.8935 17.66225,51.7755357 18.8767857,50.3783214" id="Fill-12" fill="#56CC8A"></path>
                            <path d="M26.6954286,57.1750714 C27.6675,56.05575 29.3614286,55.9372857 30.4796429,56.9093571 C31.59675,57.8814286 31.7141071,59.5753571 30.74425,60.6935714 C29.7721786,61.8106786 28.07825,61.9291429 26.9600357,60.9592857 C25.8418214,59.9872143 25.7233571,58.2921786 26.6954286,57.1750714" id="Fill-13" fill="#FFFFFF"></path>
                            <path d="M33.1766429,62.8082143 C33.9538571,61.9136429 35.309,61.8195357 36.2035714,62.59675 C37.0981429,63.3739643 37.1933571,64.7291071 36.4150357,65.6236786 C35.6378214,66.51825 34.2826786,66.6123571 33.3881071,65.8351429 C32.4935357,65.0579286 32.3994286,63.7027857 33.1766429,62.8082143" id="Fill-14" fill="#FFFFFF"></path>
                            <path d="M54.0385357,80.9432143 C54.81575,80.0486429 54.7205357,78.6935 53.8270714,77.9162857 C52.9325,77.1390714 51.57625,77.2331786 50.7990357,78.12775 C50.0218214,79.0223214 50.1170357,80.3774643 51.0116071,81.1546786 C51.9050714,81.9318929 53.2602143,81.8377857 54.0385357,80.9432143" id="Fill-15" fill="#FFFFFF"></path>
                            <path d="M38.6426071,0.881285714 C42.2496786,0.62775 45.3795714,3.348 45.632,6.95507143 C45.8833214,10.56325 43.1641786,13.6920357 39.556,13.9455714 C35.9489286,14.1968929 32.8190357,11.4766429 32.5677143,7.86957143 C32.3152857,4.2625 35.0355357,1.13260714 38.6426071,0.881285714" id="Fill-16" fill="#4BBCD7"></path>
                            <path d="M96.49525,1.20014286 C101.241571,0.866892857 105.359036,4.44739286 105.691179,9.19371429 C106.023321,13.9411429 102.443929,18.0575 97.6976071,18.3885357 C92.9501786,18.7206786 88.8338214,15.1423929 88.5016786,10.3960714 C88.1695357,5.64864286 91.7489286,1.53228571 96.49525,1.20014286" id="Fill-17" fill="#657BC5"></path>
                            <path d="M39.6955,15.9351071 C42.5818214,15.7336071 45.0850714,17.9091429 45.2865714,20.7954643 C45.4880714,23.6817857 43.3125357,26.1839286 40.4262143,26.3865357 C37.5398929,26.5880357 35.0366429,24.4125 34.8351429,21.5250714 C34.6336429,18.6398571 36.8091786,16.1366071 39.6955,15.9351071" id="Fill-18" fill="#657BC5"></path>
                            <path d="M40.58675,28.6860714 C42.89625,28.5255357 44.8979643,30.2659643 45.0596071,32.5743571 C45.22125,34.88275 43.4797143,36.8855714 41.1713214,37.0472143 C38.8629286,37.2088571 36.8601071,35.4684286 36.6984643,33.1589286 C36.5368214,30.8505357 38.2783571,28.8488214 40.58675,28.6860714" id="Fill-19" fill="#56CC8A"></path>
                            <path d="M41.3218929,39.1873214 C43.1686071,39.0577857 44.7695357,40.4505714 44.9001786,42.2983929 C45.0286071,44.1451071 43.6369286,45.7471429 41.7891071,45.8766786 C39.9423929,46.0051071 38.33925,44.6123214 38.2108214,42.7656071 C38.0812857,40.9188929 39.4751786,39.3168571 41.3218929,39.1873214" id="Fill-20" fill="#FFFFFF"></path>
                            <path d="M42.04375,49.5202857 C43.5217857,49.4184286 44.80275,50.5322143 44.9068214,52.01025 C45.0097857,53.4860714 43.896,54.76925 42.4179643,54.8711071 C40.9399286,54.9762857 39.6589643,53.8613929 39.556,52.3844643 C39.4519286,50.9064286 40.5657143,49.6243571 42.04375,49.5202857" id="Fill-21" fill="#FFFFFF"></path>
                            <path d="M42.6438214,58.0884643 C43.82625,58.0065357 44.8503571,58.8966786 44.9322857,60.0791071 C45.0153214,61.2615357 44.1240714,62.28675 42.94275,62.3697857 C41.7603214,62.4517143 40.7351071,61.5604643 40.6520714,60.3791429 C40.5701429,59.1967143 41.4602857,58.1715 42.6438214,58.0884643" id="Fill-22" fill="#FFFFFF"></path>
                            <path d="M45.1703214,94.2300357 C46.6483571,94.1281786 47.7621429,92.845 47.6591786,91.3669643 C47.5551071,89.8900357 46.2741429,88.77625 44.7961071,88.8792143 C43.3180714,88.9821786 42.2042857,90.26425 42.30725,91.7411786 C42.4113214,93.2192143 43.6922857,94.333 45.1703214,94.2300357" id="Fill-23" fill="#FFFFFF"></path>
                            <path d="M44.5713571,85.6629643 C45.7537857,85.5799286 46.6450357,84.5547143 46.562,83.3722857 C46.4789643,82.1909643 45.45375,81.2997143 44.2724286,81.3816429 C43.09,81.4646786 42.19875,82.4898929 42.2806786,83.6723214 C42.3637143,84.85475 43.3889286,85.746 44.5713571,85.6629643" id="Fill-24" fill="#FFFFFF"></path>
                            <path d="M0.417392857,74.8948929 C0.25575,72.5865 1.99728571,70.5847857 4.30567857,70.4220357 C6.61517857,70.2615 8.61689286,72.0019286 8.77853571,74.3114286 C8.94017857,76.6198214 7.19975,78.6226429 4.89135714,78.7842857 C2.58185714,78.9459286 0.579035714,77.2032857 0.417392857,74.8948929" id="Fill-25" fill="#657BC5"></path>
                            <path d="M10.9186429,74.1608571 C10.7891071,72.3141429 12.1818929,70.7121071 14.0297143,70.5836786 C15.8764286,70.4541429 17.4784643,71.8469286 17.608,73.6936429 C17.7375357,75.5403571 16.3436429,77.1435 14.4969286,77.2730357 C12.6502143,77.4003571 11.0481786,76.0075714 10.9186429,74.1608571" id="Fill-26" fill="#56CC8A"></path>
                            <path d="M21.2527143,73.439 C21.14975,71.9609643 22.2635357,70.68 23.7415714,70.5759286 C25.2185,70.4729643 26.5005714,71.58675 26.6035357,73.0647857 C26.7076071,74.5428214 25.5927143,75.8237857 24.1157857,75.9278571 C22.63775,76.0308214 21.3556786,74.9170357 21.2527143,73.439" id="Fill-27" fill="#FFFFFF"></path>
                            <path d="M29.8197857,72.8400357 C29.73675,71.6576071 30.628,70.6323929 31.8104286,70.5493571 C32.9928571,70.4663214 34.0180714,71.3586786 34.1011071,72.5411071 C34.1830357,73.7224286 33.2917857,74.7476429 32.1104643,74.8306786 C30.9280357,74.9137143 29.9028214,74.0213571 29.8197857,72.8400357" id="Fill-28" fill="#FFFFFF"></path>
                            <path d="M69.8275,67.4294286 C69.8275,65.9879286 71.4871071,65.4443214 72.6839286,65.4443214 C73.7168929,65.4443214 75.0764643,65.8506429 75.7573571,66.7219643 L78.6669286,63.5400357 C77.035,62.0985357 74.9413929,61.52725 72.76475,61.52725 C68.9849643,61.52725 65.4221786,63.6762143 65.4221786,67.7837143 C65.4221786,74.2029286 74.4509286,72.2975357 74.4509286,75.83375 C74.4509286,77.1933214 72.9009286,77.8476429 71.5136786,77.8476429 C70.0998571,77.8476429 68.6860357,77.16675 67.8147143,76.0241786 L64.7966429,79.3422857 C66.6178929,81.0273571 68.7945357,81.7625 71.269,81.7625 C75.2403214,81.7625 78.6946071,79.7231429 78.6946071,75.4252143 C78.6946071,68.6805 69.8275,70.9379643 69.8275,67.4294286 L69.8275,67.4294286 Z M92.2925357,71.6454286 C92.2925357,68.0549643 94.6585,65.4443214 97.8681071,65.4443214 C99.4457857,65.4443214 100.669179,66.0156071 101.512821,67.022 L104.776679,64.356 C103.14475,62.2623929 100.4245,61.52725 98.2755357,61.52725 C92.2648571,61.52725 87.8861071,65.4708929 87.8861071,71.6454286 C87.8861071,77.8188571 92.2648571,81.7625 98.2755357,81.7625 C100.913857,81.7625 103.634107,80.7018571 105.238357,78.4178214 L101.70325,75.7795 C100.833036,77.0848214 99.4457857,77.8476429 97.7319286,77.8476429 C94.6585,77.8476429 92.2925357,75.2347857 92.2925357,71.6454286 L92.2925357,71.6454286 Z M123.597,73.05925 L130.831071,62.0177143 L125.800214,62.0177143 L121.475714,69.2241071 L117.395893,62.0177143 L112.11925,62.0177143 L119.354429,73.05925 L119.354429,81.2731429 L123.597,81.2731429 L123.597,73.05925 L123.597,73.05925 Z M139.480071,81.2731429 L151.583357,81.2731429 L151.583357,77.3571786 L143.722643,77.3571786 L143.722643,62.0177143 L139.480071,62.0177143 L139.480071,81.2731429 L139.480071,81.2731429 Z M161.156821,81.2731429 L173.259,81.2731429 L173.259,77.3571786 L165.399393,77.3571786 L165.399393,62.0177143 L161.156821,62.0177143 L161.156821,81.2731429 L161.156821,81.2731429 Z M200.889964,81.2731429 L192.514429,62.0177143 L189.005893,62.0177143 L180.682393,81.2731429 L185.361179,81.2731429 L186.965429,77.1933214 L188.298429,73.6039643 L190.637821,67.6198571 L193.003786,73.6039643 L194.445286,77.1933214 L196.103786,81.2731429 L200.889964,81.2731429 L200.889964,81.2731429 Z" id="Fill-29" fill="#FFFFFF"></path>
                            <path d="M214.253179,82.2075714 C216.106536,81.5145 217.047607,79.4485714 216.355643,77.5941071 C215.661464,75.74075 213.596643,74.7985714 211.741071,75.4916429 C209.886607,76.1847143 208.946643,78.2506429 209.639714,80.1051071 C210.332786,81.9584643 212.398714,82.9006429 214.253179,82.2075714" id="Fill-30" fill="#B396D0"></path>
                        </g>
                    </g>
                </g>
            </g>
            <path d="M66,90.2721303 L69.6737591,90.2721303 C70.3591277,90.2721303 71.0444861,90.3729183 71.7298547,90.5744973 C72.4152234,90.7760763 73.0350695,91.0935585 73.5894118,91.5269534 C74.1437541,91.9603482 74.5922607,92.5146822 74.934945,93.1899719 C75.2776293,93.8652616 75.4489689,94.6766049 75.4489689,95.6240263 C75.4489689,96.5412108 75.2776293,97.3349162 74.934945,98.0051664 C74.5922607,98.6754166 74.1437541,99.2297506 73.5894118,99.668185 C73.0350695,100.106619 72.4152234,100.43418 71.7298547,100.650878 C71.0444861,100.867575 70.3591277,100.975922 69.6737591,100.975922 L66,100.975922 L66,90.2721303 Z M67.4967167,99.6606258 L69.3713921,99.6606258 C70.0164449,99.6606258 70.6136138,99.5699166 71.1629166,99.3884955 C71.7122194,99.2070744 72.185923,98.9450256 72.5840415,98.6023413 C72.9821601,98.2596569 73.2920831,97.8363474 73.5138201,97.3323999 C73.735557,96.8284523 73.8464238,96.2590002 73.8464238,95.6240263 C73.8464238,94.9588155 73.735557,94.3742452 73.5138201,93.8702977 C73.2920831,93.3663501 72.9821601,92.9455603 72.5840415,92.6079154 C72.185923,92.2702706 71.7122194,92.0132612 71.1629166,91.8368796 C70.6136138,91.6604979 70.0164449,91.5723084 69.3713921,91.5723084 L67.4967167,91.5723084 L67.4967167,99.6606258 Z M88.5903041,95.6089079 C88.5903041,96.4353819 88.4466812,97.1938115 88.1594311,97.8842196 C87.872181,98.5746277 87.4765881,99.1692769 86.9726406,99.668185 C86.4686931,100.167093 85.8690045,100.555127 85.1735569,100.832298 C84.4781093,101.109469 83.7221994,101.248053 82.9058044,101.248053 C82.0894094,101.248053 81.3360191,101.109469 80.645611,100.832298 C79.9552029,100.555127 79.3580341,100.167093 78.8540865,99.668185 C78.350139,99.1692769 77.9570658,98.5746277 77.6748552,97.8842196 C77.3926446,97.1938115 77.2515414,96.4353819 77.2515414,95.6089079 C77.2515414,94.772355 77.3926446,94.008886 77.6748552,93.3184779 C77.9570658,92.6280698 78.350139,92.03846 78.8540865,91.5496309 C79.3580341,91.0608018 79.9552029,90.6803271 80.645611,90.4081955 C81.3360191,90.1360638 82.0894094,90 82.9058044,90 C83.7221994,90 84.4781093,90.1360638 85.1735569,90.4081955 C85.8690045,90.6803271 86.4686931,91.0608018 86.9726406,91.5496309 C87.4765881,92.03846 87.872181,92.6280698 88.1594311,93.3184779 C88.4466812,94.008886 88.5903041,94.772355 88.5903041,95.6089079 Z M86.9726406,95.6089079 C86.9726406,95.0243288 86.876892,94.4725145 86.6853919,93.9534486 C86.4938919,93.4343826 86.2217643,92.978317 85.869001,92.5852379 C85.5162378,92.1921588 85.0904085,91.8822357 84.5915004,91.6554593 C84.0925924,91.428683 83.5306993,91.3152965 82.9058044,91.3152965 C82.2909884,91.3152965 81.7341347,91.428683 81.2352267,91.6554593 C80.7363186,91.8822357 80.3130091,92.1921588 79.9652853,92.5852379 C79.6175615,92.978317 79.3479536,93.4343826 79.1564535,93.9534486 C78.9649535,94.4725145 78.8692049,95.0243288 78.8692049,95.6089079 C78.8692049,96.203566 78.9649535,96.7629394 79.1564535,97.2870448 C79.3479536,97.8111502 79.6200812,98.2672159 79.9728444,98.6552555 C80.3256077,99.0432951 80.7489173,99.3481788 81.2427859,99.5699157 C81.7366544,99.7916526 82.2909884,99.9025194 82.9058044,99.9025194 C83.5206204,99.9025194 84.0799937,99.7916526 84.5839413,99.5699157 C85.0878888,99.3481788 85.5162378,99.0432951 85.869001,98.6552555 C86.2217643,98.2672159 86.4938919,97.8111502 86.6853919,97.2870448 C86.876892,96.7629394 86.9726406,96.203566 86.9726406,95.6089079 Z M100.098857,99.3129037 C99.6755415,99.8874039 99.1262469,100.353548 98.4509572,100.711351 C97.7756676,101.069154 96.9643242,101.248053 96.0169029,101.248053 C95.2005079,101.248053 94.4471176,101.109469 93.7567095,100.832298 C93.0663014,100.555127 92.4716522,100.167093 91.9727442,99.668185 C91.4738361,99.1692769 91.0832827,98.5746277 90.801072,97.8842196 C90.5188614,97.1938115 90.3777582,96.4353819 90.3777582,95.6089079 C90.3777582,94.772355 90.5213811,94.008886 90.8086312,93.3184779 C91.0958813,92.6280698 91.4939939,92.03846 92.0029809,91.5496309 C92.5119679,91.0608018 93.1141761,90.6803271 93.8096237,90.4081955 C94.5050713,90.1360638 95.2609813,90 96.0773763,90 C96.4402185,90 96.8080947,90.0352758 97.1810158,90.1058285 C97.553937,90.1763811 97.9117344,90.2822085 98.2544187,90.4233138 C98.597103,90.5644191 98.9095458,90.7382784 99.1917564,90.9448969 C99.473967,91.1515154 99.7158582,91.3908869 99.9174372,91.6630185 L98.7382059,92.5701195 C98.4761532,92.2072773 98.1057573,91.907433 97.6270072,91.6705777 C97.148257,91.4337224 96.6317185,91.3152965 96.0773763,91.3152965 C95.4524813,91.3152965 94.8905883,91.428683 94.3916802,91.6554593 C93.8927722,91.8822357 93.4669429,92.1921588 93.1141796,92.5852379 C92.7614164,92.978317 92.4892888,93.4343826 92.2977887,93.9534486 C92.1062886,94.4725145 92.0105401,95.0243288 92.0105401,95.6089079 C92.0105401,96.213645 92.1037689,96.7780577 92.2902295,97.3021631 C92.4766901,97.8262686 92.7437783,98.2823342 93.0915021,98.6703738 C93.4392259,99.0584134 93.8625355,99.3632971 94.3614435,99.585034 C94.8603516,99.8067709 95.4172052,99.9176377 96.0320212,99.9176377 C96.6367582,99.9176377 97.1860528,99.7966921 97.6799214,99.5547973 C98.17379,99.3129025 98.5819813,98.9601445 98.9045077,98.4965128 L100.098857,99.3129037 Z M105.998503,101.248053 C105.292976,101.248053 104.67817,101.129627 104.154064,100.892771 C103.629959,100.655916 103.19657,100.340954 102.853886,99.9478744 C102.511202,99.5547954 102.256712,99.1037691 102.090409,98.5947821 C101.924107,98.0857951 101.840957,97.5591778 101.840957,97.0149145 L101.840957,90.2721303 L103.337673,90.2721303 L103.337673,96.9242044 C103.337673,97.2870466 103.383028,97.6473637 103.473738,98.0051664 C103.564449,98.3629692 103.713111,98.6829711 103.91973,98.9651817 C104.126348,99.2473923 104.398476,99.4741653 104.736121,99.6455074 C105.073765,99.8168496 105.494555,99.9025194 105.998503,99.9025194 C106.492371,99.9025194 106.910642,99.8168496 107.253326,99.6455074 C107.59601,99.4741653 107.870658,99.2473923 108.077276,98.9651817 C108.283894,98.6829711 108.432557,98.3629692 108.523267,98.0051664 C108.613978,97.6473637 108.659332,97.2870466 108.659332,96.9242044 L108.659332,90.2721303 L110.156049,90.2721303 L110.156049,97.0149145 C110.156049,97.5591778 110.072899,98.0857951 109.906596,98.5947821 C109.740294,99.1037691 109.485804,99.5547954 109.14312,99.9478744 C108.800435,100.340954 108.367047,100.655916 107.842942,100.892771 C107.318836,101.129627 106.704029,101.248053 105.998503,101.248053 Z M118.504867,98.4965128 L118.535104,98.4965128 L121.694839,90.2721303 L124.023065,90.2721303 L124.023065,100.975922 L122.526348,100.975922 L122.526348,92.0258589 L122.496112,92.0258589 L118.943299,100.975922 L117.990843,100.975922 L114.453149,92.0258589 L114.422913,92.0258589 L114.422913,100.975922 L112.971551,100.975922 L112.971551,90.2721303 L115.299777,90.2721303 L118.504867,98.4965128 Z M128.410876,99.6455074 L134.004665,99.6455074 L134.004665,100.975922 L126.914159,100.975922 L126.914159,90.2721303 L133.77789,90.2721303 L133.77789,91.5874268 L128.410876,91.5874268 L128.410876,94.792517 L133.460405,94.792517 L133.460405,96.0775768 L128.410876,96.0775768 L128.410876,99.6455074 Z M143.835082,98.8291165 L143.865318,98.8291165 L143.865318,90.2721303 L145.362035,90.2721303 L145.362035,100.975922 L143.472241,100.975922 L137.817978,92.2375158 L137.787742,92.2375158 L137.787742,100.975922 L136.291025,100.975922 L136.291025,90.2721303 L138.241292,90.2721303 L143.835082,98.8291165 Z M152.00248,100.975922 L150.505763,100.975922 L150.505763,91.5874268 L147.073897,91.5874268 L147.073897,90.2721303 L155.434345,90.2721303 L155.434345,91.5874268 L152.00248,91.5874268 L152.00248,100.975922 Z M156.677539,100.975922 L155.01452,100.975922 L159.655854,90.2721303 L161.016505,90.2721303 L165.612484,100.975922 L163.919228,100.975922 L162.830707,98.3453293 L157.750942,98.3453293 L156.677539,100.975922 Z M158.280084,97.0300328 L162.286447,97.0300328 L160.290824,92.0107406 L158.280084,97.0300328 Z M170.121241,100.975922 L168.624524,100.975922 L168.624524,91.5874268 L165.192659,91.5874268 L165.192659,90.2721303 L173.553106,90.2721303 L173.553106,91.5874268 L170.121241,91.5874268 L170.121241,100.975922 Z M176.761685,100.975922 L175.264969,100.975922 L175.264969,90.2721303 L176.761685,90.2721303 L176.761685,100.975922 Z M190.447281,95.6089079 C190.447281,96.4353819 190.303658,97.1938115 190.016408,97.8842196 C189.729158,98.5746277 189.333565,99.1692769 188.829618,99.668185 C188.32567,100.167093 187.725982,100.555127 187.030534,100.832298 C186.335086,101.109469 185.579177,101.248053 184.762782,101.248053 C183.946387,101.248053 183.192996,101.109469 182.502588,100.832298 C181.81218,100.555127 181.215011,100.167093 180.711064,99.668185 C180.207116,99.1692769 179.814043,98.5746277 179.531832,97.8842196 C179.249622,97.1938115 179.108519,96.4353819 179.108519,95.6089079 C179.108519,94.772355 179.249622,94.008886 179.531832,93.3184779 C179.814043,92.6280698 180.207116,92.03846 180.711064,91.5496309 C181.215011,91.0608018 181.81218,90.6803271 182.502588,90.4081955 C183.192996,90.1360638 183.946387,90 184.762782,90 C185.579177,90 186.335086,90.1360638 187.030534,90.4081955 C187.725982,90.6803271 188.32567,91.0608018 188.829618,91.5496309 C189.333565,92.03846 189.729158,92.6280698 190.016408,93.3184779 C190.303658,94.008886 190.447281,94.772355 190.447281,95.6089079 Z M188.829618,95.6089079 C188.829618,95.0243288 188.733869,94.4725145 188.542369,93.9534486 C188.350869,93.4343826 188.078741,92.978317 187.725978,92.5852379 C187.373215,92.1921588 186.947386,91.8822357 186.448478,91.6554593 C185.94957,91.428683 185.387676,91.3152965 184.762782,91.3152965 C184.147966,91.3152965 183.591112,91.428683 183.092204,91.6554593 C182.593296,91.8822357 182.169986,92.1921588 181.822262,92.5852379 C181.474539,92.978317 181.204931,93.4343826 181.013431,93.9534486 C180.821931,94.4725145 180.726182,95.0243288 180.726182,95.6089079 C180.726182,96.203566 180.821931,96.7629394 181.013431,97.2870448 C181.204931,97.8111502 181.477058,98.2672159 181.829822,98.6552555 C182.182585,99.0432951 182.605894,99.3481788 183.099763,99.5699157 C183.593632,99.7916526 184.147966,99.9025194 184.762782,99.9025194 C185.377598,99.9025194 185.936971,99.7916526 186.440918,99.5699157 C186.944866,99.3481788 187.373215,99.0432951 187.725978,98.6552555 C188.078741,98.2672159 188.350869,97.8111502 188.542369,97.2870448 C188.733869,96.7629394 188.829618,96.203566 188.829618,95.6089079 Z M200.323053,98.8291165 L200.353289,98.8291165 L200.353289,90.2721303 L201.850006,90.2721303 L201.850006,100.975922 L199.960212,100.975922 L194.305949,92.2375158 L194.275713,92.2375158 L194.275713,100.975922 L192.778996,100.975922 L192.778996,90.2721303 L194.729263,90.2721303 L200.323053,98.8291165 Z" id="Documentation" fill="#FFFFFF" opacity="0.900000036"></path>
        </g>
    </g>
</svg>