<?xml version="1.0" encoding="utf-8"?>
<!-- Generator: Adobe Illustrator 21.1.0, SVG Export Plug-In . SVG Version: 6.00 Build 0)  -->
<svg version="1.1" id="Layer_1" xmlns="http://www.w3.org/2000/svg" xmlns:xlink="http://www.w3.org/1999/xlink" x="0px" y="0px"
	 viewBox="0 0 151.8 39.7" style="enable-background:new 0 0 151.8 39.7;" xml:space="preserve">
<style type="text/css">
	.st0{fill:#FFFFFF;}
	.st1{fill:#B396D0;}
	.st2{opacity:0.9;fill:#FFFFFF;enable-background:new    ;}
</style>
<title>Logo</title>
<desc>Created with Sketch.</desc>
<path id="Fill-29" class="st0" d="M5,5.9c0-1.4,1.7-2,2.9-2c1,0,2.4,0.4,3.1,1.3L13.9,2C12.2,0.6,10.1,0,8,0C4.2,0,0.6,2.1,0.6,6.3
	c0,6.4,9,4.5,9,8.1c0,1.4-1.5,2-2.9,2c-1.4,0-2.8-0.7-3.7-1.8l-3,3.3c1.8,1.7,4,2.4,6.5,2.4c4,0,7.4-2,7.4-6.3C13.9,7.2,5,9.4,5,5.9
	L5,5.9z M27.5,10.1c0-3.6,2.4-6.2,5.6-6.2c1.6,0,2.8,0.6,3.6,1.6L40,2.8C38.3,0.7,35.6,0,33.5,0c-6,0-10.4,3.9-10.4,10.1
	c0,6.2,4.4,10.1,10.4,10.1c2.6,0,5.4-1.1,7-3.3l-3.5-2.6c-0.9,1.3-2.3,2.1-4,2.1C29.9,16.3,27.5,13.7,27.5,10.1L27.5,10.1z
	 M58.8,11.5l7.2-11h-5l-4.3,7.2l-4.1-7.2h-5.3l7.2,11v8.2h4.2V11.5L58.8,11.5z M74.7,19.7h12.1v-3.9h-7.9V0.5h-4.2V19.7L74.7,19.7z
	 M96.4,19.7h12.1v-3.9h-7.9V0.5h-4.2V19.7L96.4,19.7z M136.1,19.7l-8.4-19.3h-3.5l-8.3,19.3h4.7l1.6-4.1l1.3-3.6l2.3-6l2.4,6
	l1.4,3.6l1.7,4.1H136.1L136.1,19.7z"/>
<path id="Fill-30" class="st1" d="M149.5,20.7c1.9-0.7,2.8-2.8,2.1-4.6c-0.7-1.9-2.8-2.8-4.6-2.1c-1.9,0.7-2.8,2.8-2.1,4.6
	C145.5,20.4,147.6,21.4,149.5,20.7"/>
<path id="Documentation" class="st2" d="M1.2,28.7h3.7c0.7,0,1.4,0.1,2.1,0.3c0.7,0.2,1.3,0.5,1.9,1c0.6,0.4,1,1,1.3,1.7
	s0.5,1.5,0.5,2.4c0,0.9-0.2,1.7-0.5,2.4s-0.8,1.2-1.3,1.7c-0.6,0.4-1.2,0.8-1.9,1c-0.7,0.2-1.4,0.3-2.1,0.3H1.2V28.7z M2.7,38.1h1.9
	c0.6,0,1.2-0.1,1.8-0.3s1-0.4,1.4-0.8c0.4-0.3,0.7-0.8,0.9-1.3C8.9,35.3,9,34.7,9,34.1c0-0.7-0.1-1.2-0.3-1.8
	c-0.2-0.5-0.5-0.9-0.9-1.3c-0.4-0.3-0.9-0.6-1.4-0.8C5.8,30.1,5.2,30,4.6,30H2.7V38.1z M23.8,34.1c0,0.8-0.1,1.6-0.4,2.3
	c-0.3,0.7-0.7,1.3-1.2,1.8s-1.1,0.9-1.8,1.2c-0.7,0.3-1.5,0.4-2.3,0.4c-0.8,0-1.6-0.1-2.3-0.4c-0.7-0.3-1.3-0.7-1.8-1.2
	c-0.5-0.5-0.9-1.1-1.2-1.8c-0.3-0.7-0.4-1.4-0.4-2.3c0-0.8,0.1-1.6,0.4-2.3c0.3-0.7,0.7-1.3,1.2-1.8c0.5-0.5,1.1-0.9,1.8-1.1
	c0.7-0.3,1.4-0.4,2.3-0.4c0.8,0,1.6,0.1,2.3,0.4c0.7,0.3,1.3,0.7,1.8,1.1s0.9,1.1,1.2,1.8C23.7,32.5,23.8,33.2,23.8,34.1z
	 M22.2,34.1c0-0.6-0.1-1.1-0.3-1.7c-0.2-0.5-0.5-1-0.8-1.4c-0.4-0.4-0.8-0.7-1.3-0.9s-1.1-0.3-1.7-0.3c-0.6,0-1.2,0.1-1.7,0.3
	s-0.9,0.5-1.3,0.9c-0.3,0.4-0.6,0.8-0.8,1.4c-0.2,0.5-0.3,1.1-0.3,1.7c0,0.6,0.1,1.2,0.3,1.7c0.2,0.5,0.5,1,0.8,1.4
	c0.4,0.4,0.8,0.7,1.3,0.9c0.5,0.2,1,0.3,1.7,0.3c0.6,0,1.2-0.1,1.7-0.3c0.5-0.2,0.9-0.5,1.3-0.9c0.4-0.4,0.6-0.8,0.8-1.4
	C22.1,35.2,22.2,34.7,22.2,34.1z M35.3,37.8c-0.4,0.6-1,1-1.6,1.4c-0.7,0.4-1.5,0.5-2.4,0.5c-0.8,0-1.6-0.1-2.3-0.4
	c-0.7-0.3-1.3-0.7-1.8-1.2c-0.5-0.5-0.9-1.1-1.2-1.8c-0.3-0.7-0.4-1.4-0.4-2.3c0-0.8,0.1-1.6,0.4-2.3c0.3-0.7,0.7-1.3,1.2-1.8
	s1.1-0.9,1.8-1.1s1.5-0.4,2.3-0.4c0.4,0,0.7,0,1.1,0.1c0.4,0.1,0.7,0.2,1.1,0.3s0.7,0.3,0.9,0.5c0.3,0.2,0.5,0.4,0.7,0.7L33.9,31
	c-0.3-0.4-0.6-0.7-1.1-0.9s-1-0.4-1.5-0.4c-0.6,0-1.2,0.1-1.7,0.3s-0.9,0.5-1.3,0.9c-0.4,0.4-0.6,0.8-0.8,1.4
	c-0.2,0.5-0.3,1.1-0.3,1.7c0,0.6,0.1,1.2,0.3,1.7c0.2,0.5,0.5,1,0.8,1.4c0.3,0.4,0.8,0.7,1.3,0.9c0.5,0.2,1.1,0.3,1.7,0.3
	c0.6,0,1.2-0.1,1.6-0.4c0.5-0.2,0.9-0.6,1.2-1.1L35.3,37.8z M41.2,39.7c-0.7,0-1.3-0.1-1.8-0.4c-0.5-0.2-1-0.6-1.3-0.9
	c-0.3-0.4-0.6-0.8-0.8-1.4c-0.2-0.5-0.2-1-0.2-1.6v-6.7h1.5v6.7c0,0.4,0,0.7,0.1,1.1c0.1,0.4,0.2,0.7,0.4,1s0.5,0.5,0.8,0.7
	s0.8,0.3,1.3,0.3c0.5,0,0.9-0.1,1.3-0.3s0.6-0.4,0.8-0.7s0.4-0.6,0.4-1c0.1-0.4,0.1-0.7,0.1-1.1v-6.7h1.5v6.7c0,0.5-0.1,1.1-0.2,1.6
	c-0.2,0.5-0.4,1-0.8,1.4s-0.8,0.7-1.3,0.9S41.9,39.7,41.2,39.7z M53.7,37L53.7,37l3.2-8.2h2.3v10.7h-1.5v-9h0l-3.6,9h-1l-3.5-9h0v9
	h-1.5V28.7h2.3L53.7,37z M63.6,38.1h5.6v1.3h-7.1V28.7H69v1.3h-5.4v3.2h5v1.3h-5V38.1z M79,37.3L79,37.3l0-8.6h1.5v10.7h-1.9
	L73,30.7h0v8.7h-1.5V28.7h2L79,37.3z M87.2,39.4h-1.5v-9.4h-3.4v-1.3h8.4v1.3h-3.4V39.4z M91.9,39.4h-1.7l4.6-10.7h1.4l4.6,10.7
	h-1.7L98,36.8H93L91.9,39.4z M93.5,35.5h4l-2-5L93.5,35.5z M105.3,39.4h-1.5v-9.4h-3.4v-1.3h8.4v1.3h-3.4V39.4z M112,39.4h-1.5V28.7
	h1.5V39.4z M125.7,34.1c0,0.8-0.1,1.6-0.4,2.3c-0.3,0.7-0.7,1.3-1.2,1.8s-1.1,0.9-1.8,1.2s-1.5,0.4-2.3,0.4c-0.8,0-1.6-0.1-2.3-0.4
	c-0.7-0.3-1.3-0.7-1.8-1.2c-0.5-0.5-0.9-1.1-1.2-1.8c-0.3-0.7-0.4-1.4-0.4-2.3c0-0.8,0.1-1.6,0.4-2.3c0.3-0.7,0.7-1.3,1.2-1.8
	c0.5-0.5,1.1-0.9,1.8-1.1c0.7-0.3,1.4-0.4,2.3-0.4c0.8,0,1.6,0.1,2.3,0.4s1.3,0.7,1.8,1.1s0.9,1.1,1.2,1.8
	C125.5,32.5,125.7,33.2,125.7,34.1z M124,34.1c0-0.6-0.1-1.1-0.3-1.7s-0.5-1-0.8-1.4c-0.4-0.4-0.8-0.7-1.3-0.9
	c-0.5-0.2-1.1-0.3-1.7-0.3c-0.6,0-1.2,0.1-1.7,0.3c-0.5,0.2-0.9,0.5-1.3,0.9c-0.3,0.4-0.6,0.8-0.8,1.4s-0.3,1.1-0.3,1.7
	c0,0.6,0.1,1.2,0.3,1.7c0.2,0.5,0.5,1,0.8,1.4s0.8,0.7,1.3,0.9c0.5,0.2,1,0.3,1.7,0.3c0.6,0,1.2-0.1,1.7-0.3
	c0.5-0.2,0.9-0.5,1.3-0.9c0.4-0.4,0.6-0.8,0.8-1.4C123.9,35.2,124,34.7,124,34.1z M135.5,37.3L135.5,37.3l0-8.6h1.5v10.7h-1.9
	l-5.7-8.7h0v8.7H128V28.7h2L135.5,37.3z"/>
</svg>
