<?xml version="1.0" encoding="utf-8"?>
<!-- Generator: Adobe Illustrator 21.1.0, SVG Export Plug-In . SVG Version: 6.00 Build 0)  -->
<svg version="1.1" id="Layer_1" xmlns="http://www.w3.org/2000/svg" xmlns:xlink="http://www.w3.org/1999/xlink" x="0px" y="0px"
	 viewBox="0 0 151.8 24.7" style="enable-background:new 0 0 151.8 39.7;" xml:space="preserve">
<style type="text/css">
	.st0{fill:#333333;}
	.st1{fill:#B396D0;}
</style>
<title>Logo</title>
<desc>Created with Sketch.</desc>
<path id="Fill-29" class="st0" d="M5,5.9c0-1.4,1.7-2,2.9-2c1,0,2.4,0.4,3.1,1.3L13.9,2C12.2,0.6,10.1,0,8,0C4.2,0,0.6,2.1,0.6,6.3
	c0,6.4,9,4.5,9,8.1c0,1.4-1.5,2-2.9,2c-1.4,0-2.8-0.7-3.7-1.8l-3,3.3c1.8,1.7,4,2.4,6.5,2.4c4,0,7.4-2,7.4-6.3C13.9,7.2,5,9.4,5,5.9
	L5,5.9z M27.5,10.1c0-3.6,2.4-6.2,5.6-6.2c1.6,0,2.8,0.6,3.6,1.6L40,2.8C38.3,0.7,35.6,0,33.5,0c-6,0-10.4,3.9-10.4,10.1
	c0,6.2,4.4,10.1,10.4,10.1c2.6,0,5.4-1.1,7-3.3l-3.5-2.6c-0.9,1.3-2.3,2.1-4,2.1C29.9,16.3,27.5,13.7,27.5,10.1L27.5,10.1z
	 M58.8,11.5l7.2-11h-5l-4.3,7.2l-4.1-7.2h-5.3l7.2,11v8.2h4.2V11.5L58.8,11.5z M74.7,19.7h12.1v-3.9h-7.9V0.5h-4.2V19.7L74.7,19.7z
	 M96.4,19.7h12.1v-3.9h-7.9V0.5h-4.2V19.7L96.4,19.7z M136.1,19.7l-8.4-19.3h-3.5l-8.3,19.3h4.7l1.6-4.1l1.3-3.6l2.3-6l2.4,6
	l1.4,3.6l1.7,4.1H136.1L136.1,19.7z"/>
<path id="Fill-30" class="st1" d="M149.5,20.7c1.9-0.7,2.8-2.8,2.1-4.6c-0.7-1.9-2.8-2.8-4.6-2.1c-1.9,0.7-2.8,2.8-2.1,4.6
	C145.5,20.4,147.6,21.4,149.5,20.7"/>
</svg>
