<?xml version="1.0" encoding="UTF-8" standalone="no"?>
<svg width="173px" height="78px" viewBox="0 0 173 78" version="1.1" xmlns="http://www.w3.org/2000/svg" xmlns:xlink="http://www.w3.org/1999/xlink">
    <!-- Generator: Sketch 3.8.3 (29802) - http://www.bohemiancoding.com/sketch -->
    <title>logo</title>
    <desc>Created with Sketch.</desc>
    <defs></defs>
    <g id="Page-1" stroke="none" stroke-width="1" fill="none" fill-rule="evenodd">
        <g id="HP" transform="translate(-95.000000, -150.000000)" fill="#FFFFFF">
            <g id="logo" transform="translate(95.000000, 150.000000)">
                <path d="M72.0745025,13.8494318 C74.2528315,15.7497955 74.4834782,19.0603636 72.5897016,21.2461364 C70.695925,23.4310227 67.3952925,23.6614773 65.2169634,21.7628864 C63.0377507,19.8625227 62.8071041,16.5519545 64.7008806,14.3661818 C66.5946572,12.1812955 69.8961734,11.9499545 72.0745025,13.8494318" id="Fill-1"></path>
                <path d="M64.1720724,22.9676318 C65.9147357,24.4868591 66.0994297,27.1362 64.584762,28.8841091 C63.0692105,30.6320182 60.4287045,30.8172682 58.6860412,29.2989273 C56.9424943,27.7779273 56.7586839,25.1294727 58.2733517,23.3815636 C59.7880195,21.6336545 62.4294092,21.4484045 64.1720724,22.9676318" id="Fill-3"></path>
                <path d="M57.4782837,30.6912273 C58.8727678,31.9073182 59.0203463,34.0257273 57.8079051,35.4244091 C56.5963476,36.8230909 54.4834126,36.9711136 53.0889285,35.7559091 C51.6953281,34.5398182 51.5468659,32.4205227 52.7593071,31.0218409 C53.9708646,29.6240455 56.0837996,29.4751364 57.4782837,30.6912273" id="Fill-5"></path>
                <path d="M51.8360137,37.0515955 C52.9512475,38.0239364 53.0696638,39.71955 52.100241,40.8372545 C51.1308183,41.9567318 49.4402936,42.0755045 48.3250598,41.1031636 C47.2089423,40.1308227 47.0914097,38.4352091 48.0608324,37.3166182 C49.0302551,36.1980273 50.7207799,36.0792545 51.8360137,37.0515955" id="Fill-7"></path>
                <path d="M46.5411276,43.3106523 C47.4336681,44.0888795 47.5282243,45.4450159 46.7523327,46.3402432 C45.976441,47.2345841 44.6243747,47.329425 43.7318342,46.5520841 C42.8401774,45.7738568 42.7456211,44.4177205 43.5206291,43.5224932 C44.2965207,42.6272659 45.648587,42.532425 46.5411276,43.3106523" id="Fill-9"></path>
                <path d="M42.0440489,48.4998682 C42.7580813,49.1220955 42.8331961,50.2070045 42.2128363,50.9223 C41.5924764,51.6393682 40.5108234,51.7155955 39.796791,51.0924818 C39.0827585,50.4702545 39.0076437,49.3853455 39.6280036,48.6682773 C40.2483634,47.9529818 41.3300165,47.8776409 42.0440489,48.4998682" id="Fill-11"></path>
                <path d="M17.6472934,76.6488273 C18.7625272,77.6220545 20.453052,77.5023955 21.4224747,76.3838045 C22.3918974,75.2652136 22.2743648,73.5696 21.1582473,72.5981455 C20.0430136,71.6249182 18.3524888,71.7445773 17.3830661,72.8631682 C16.4136434,73.9808727 16.5320596,75.6764864 17.6472934,76.6488273" id="Fill-13"></path>
                <path d="M23.072084,70.3897705 C23.9646245,71.1679977 25.3166908,71.0731568 26.0925825,70.1788159 C26.8675904,69.2827023 26.7730342,67.9274523 25.8813773,67.149225 C24.9888368,66.3709977 23.6367705,66.4658386 22.8608788,67.3601795 C22.0849872,68.2562932 22.1795435,69.6115432 23.072084,70.3897705" id="Fill-15"></path>
                <path d="M27.5691626,65.2014409 C28.283195,65.8227818 29.3648481,65.7474409 29.9852079,65.0321455 C30.6055678,64.3159636 30.530453,63.2301682 29.8164206,62.6079409 C29.1023882,61.9857136 28.0207351,62.0619409 27.4003753,62.7781227 C26.7800154,63.4934182 26.8551302,64.5792136 27.5691626,65.2014409" id="Fill-17"></path>
                <path d="M1.02562626,27.3967909 C2.54029403,25.6479955 5.18168373,25.4627455 6.924347,26.9828591 C8.66701026,28.5029727 8.85170429,31.1505409 7.33703652,32.8993364 C5.82236876,34.6481318 3.18097905,34.8324955 1.43831579,33.3132682 C-0.304347479,31.7940409 -0.489041507,29.1447 1.02562626,27.3967909" id="Fill-19"></path>
                <path d="M8.72613003,34.1102864 C9.9385712,32.7116045 12.0506225,32.5635818 13.4451066,33.7796727 C14.8395907,34.9948773 14.9871692,37.1141727 13.7756117,38.5128545 C12.5631705,39.91065 10.4502355,40.0595591 9.05575143,38.8434682 C7.66215104,37.6282636 7.51368885,35.5089682 8.72613003,34.1102864" id="Fill-21"></path>
                <path d="M15.0674095,39.6396886 C16.0368322,38.5202114 17.7273569,38.402325 18.8425907,39.3746659 C19.9578245,40.3470068 20.0762408,42.0426205 19.1068181,43.1612114 C18.1373954,44.2798023 16.4468706,44.398575 15.3316368,43.4253477 C14.216403,42.4538932 14.0979867,40.7582795 15.0674095,39.6396886" id="Fill-23"></path>
                <path d="M21.3076816,45.0808091 C22.0835733,44.1846955 23.4356396,44.0907409 24.3281801,44.8689682 C25.2198369,45.6471955 25.3143932,47.0033318 24.5393852,47.8985591 C23.7634936,48.7920136 22.4114273,48.8877409 21.5188867,48.1104 C20.6263462,47.3321727 20.5317899,45.9760364 21.3076816,45.0808091" id="Fill-25"></path>
                <path d="M26.4808818,49.591425 C27.1012416,48.8743568 28.1828947,48.7990159 28.8969271,49.4221295 C29.6109595,50.0443568 29.686958,51.1283795 29.0657145,51.8454477 C28.4453546,52.5616295 27.3637016,52.6369705 26.6496691,52.0138568 C25.9356367,51.3916295 25.8605219,50.3076068 26.4808818,49.591425" id="Fill-27"></path>
                <path d="M43.1323297,64.1099727 C43.7526896,63.3929045 43.6775748,62.3088818 42.9635424,61.6866545 C42.24951,61.0635409 41.1678569,61.1388818 40.5474971,61.85595 C39.9262535,62.5721318 40.002252,63.6561545 40.7162844,64.2783818 C41.4303168,64.9014955 42.5119699,64.8261545 43.1323297,64.1099727" id="Fill-29"></path>
                <path d="M30.8441677,0.0130295455 C33.7232737,-0.189947727 36.2215034,1.98873409 36.4229878,4.87562045 C36.6235885,7.76427955 34.4532127,10.2691432 31.5732231,10.4721205 C28.6941172,10.673325 26.1958874,8.49552955 25.9952867,5.60775682 C25.7938023,2.71998409 27.9650618,0.215120455 30.8441677,0.0130295455" id="Fill-31"></path>
                <path d="M77.0211211,0.268390909 C80.8095579,0.00159545455 84.0960511,2.86809545 84.3611622,6.66793636 C84.6262732,10.4686636 81.7692599,13.7641636 77.980823,14.0291864 C74.1915025,14.2950955 70.905893,11.4303682 70.6407819,7.63052727 C70.3756709,3.8298 73.2326842,0.5343 77.0211211,0.268390909" id="Fill-33"></path>
                <path d="M31.6843046,12.06465 C33.9881196,11.9033318 35.9861732,13.6450364 36.1470072,15.9566727 C36.3078412,18.2665364 34.5713639,20.2706045 32.2675489,20.4319227 C29.9637339,20.5932409 27.9656804,18.8515364 27.8048463,16.5407864 C27.6440123,14.2300364 29.3804896,12.2268545 31.6843046,12.06465" id="Fill-35"></path>
                <path d="M32.3958627,22.2734318 C34.2383844,22.1440227 35.837004,23.5382727 35.9660247,25.3863409 C36.0950454,27.2344091 34.7049799,28.8378409 32.8624581,28.96725 C31.0199363,29.0966591 29.4213167,27.7032955 29.292296,25.8543409 C29.1632753,24.0062727 30.5533409,22.4028409 32.3958627,22.2734318" id="Fill-37"></path>
                <path d="M32.9822883,30.6808568 C34.4563057,30.5771523 35.7350246,31.6921977 35.8384179,33.1715386 C35.9418113,34.6499932 34.8301123,35.9325614 33.3552112,36.0362659 C31.8811938,36.1381977 30.6024748,35.0231523 30.4990815,33.5446977 C30.3965719,32.0662432 31.5082709,30.783675 32.9822883,30.6808568" id="Fill-39"></path>
                <path d="M33.5587281,38.9532886 C34.7384722,38.8708568 35.7609172,39.7625386 35.8439853,40.9458341 C35.9261697,42.1282432 35.037164,43.1546523 33.8574199,43.2370841 C32.6776757,43.3212886 31.6552308,42.4287205 31.5721627,41.2463114 C31.4899782,40.0630159 32.3789839,39.0366068 33.5587281,38.9532886" id="Fill-41"></path>
                <path d="M34.0372535,45.8122364 C34.9810488,45.7466455 35.7993583,46.4592818 35.8647523,47.4059182 C35.9310301,48.3525545 35.2196488,49.1733273 34.2758535,49.2398045 C33.3329418,49.3053955 32.5146324,48.5927591 32.4483547,47.6461227 C32.3820769,46.6994864 33.0934582,45.8787136 34.0372535,45.8122364" id="Fill-43"></path>
                <path d="M36.0544834,74.7471341 C37.2342276,74.6647023 38.1232333,73.6382932 38.0410489,72.4549977 C37.9579807,71.2725886 36.9355358,70.3800205 35.7557917,70.4633386 C34.5760475,70.5457705 33.6870418,71.5721795 33.7692262,72.7545886 C33.8522944,73.9378841 34.8747393,74.8295659 36.0544834,74.7471341" id="Fill-45"></path>
                <path d="M35.575958,67.8881864 C36.5197533,67.8217091 37.2311346,67.0009364 37.1648569,66.0543 C37.0985791,65.10855 36.2802697,64.3950273 35.3373581,64.4606182 C34.3935628,64.5270955 33.6821815,65.3478682 33.7475755,66.2945045 C33.8138533,67.2411409 34.6321627,67.9546636 35.575958,67.8881864" id="Fill-47"></path>
                <path d="M0.333509694,59.2678568 C0.204488986,57.4197886 1.59455456,55.8163568 3.43707632,55.6869477 C5.27959808,55.5575386 6.87821768,56.9517886 7.00723839,58.8007432 C7.13625909,60.6488114 5.74707722,62.2513568 3.90367176,62.3816523 C2.06115,62.510175 0.462530402,61.115925 0.333509694,59.2678568" id="Fill-49"></path>
                <path d="M8.71534884,58.6801091 C8.61195554,57.2016545 9.72365452,55.9190864 11.1985556,55.8162682 C12.672573,55.7116773 13.951292,56.8267227 14.0546853,58.3060636 C14.1571949,59.7845182 13.0454959,61.0670864 11.5714785,61.1716773 C10.0974611,61.2736091 8.81874215,60.1585636 8.71534884,58.6801091" id="Fill-51"></path>
                <path d="M16.9638371,58.1018455 C16.8816527,56.91855 17.7706584,55.8930273 18.9504026,55.8097091 C20.129263,55.7272773 21.1525916,56.6189591 21.2347761,57.8022545 C21.3178442,58.98555 20.4279548,60.0110727 19.2490943,60.0943909 C18.0693502,60.1768227 17.0460216,59.2851409 16.9638371,58.1018455" id="Fill-53"></path>
                <path d="M23.8017579,57.6223227 C23.7354802,56.6756864 24.4468615,55.8549136 25.3906568,55.7884364 C26.3344521,55.7219591 27.1527615,56.4363682 27.2190393,57.3821182 C27.2844334,58.3287545 26.5730521,59.1495273 25.6301404,59.2160045 C24.6863451,59.2824818 23.8680357,58.5680727 23.8017579,57.6223227" id="Fill-55"></path>
                <path d="M160.34729,64.3739318 L153.662073,48.9574091 L150.861617,48.9574091 L144.217934,64.3739318 L147.952465,64.3739318 L149.232951,61.1067955 L150.29693,58.2340909 L152.164195,53.4432955 L154.05267,58.2340909 L155.203252,61.1067955 L156.52704,64.3739318 L160.34729,64.3739318 Z M128.632055,64.3739318 L138.292702,64.3739318 L138.292702,61.2388636 L132.018407,61.2388636 L132.018407,48.9574091 L128.632055,48.9574091 L128.632055,64.3739318 Z M111.330909,64.3739318 L120.991555,64.3739318 L120.991555,61.2388636 L114.71726,61.2388636 L114.71726,48.9574091 L111.330909,48.9574091 L111.330909,64.3739318 Z M98.6532986,57.798 L104.427417,48.9574091 L100.411869,48.9574091 L96.9601227,54.7276364 L93.7036754,48.9574091 L89.4919446,48.9574091 L95.2660631,57.798 L95.2660631,64.3739318 L98.6532986,64.3739318 L98.6532986,57.798 Z M73.6665827,56.6661136 C73.6665827,53.7916364 75.555057,51.7015909 78.1169134,51.7015909 C79.3761908,51.7015909 80.3526832,52.1589545 81.0260652,52.9646591 L83.6303394,50.8302955 C82.3286442,49.1541818 80.1573847,48.5656364 78.4421163,48.5656364 C73.6444901,48.5656364 70.1494428,51.7228636 70.1494428,56.6661136 C70.1494428,61.6084773 73.6444901,64.7648182 78.4421163,64.7648182 C80.5479817,64.7648182 82.7192411,63.9156818 83.9988438,62.088 L81.1780622,59.9757955 C80.4825876,61.0208182 79.3761908,61.6306364 78.0082179,61.6306364 C75.555057,61.6306364 73.6665827,59.5397045 73.6665827,56.6661136 L73.6665827,56.6661136 Z M55.7353553,53.2908409 C55.7353553,52.1359091 57.0600268,51.7015909 58.0153103,51.7015909 C58.8398056,51.7015909 59.9249935,52.0268864 60.4684712,52.7235682 L62.7899602,50.1761591 C61.488265,49.023 59.8171817,48.5656364 58.0798206,48.5656364 C55.062857,48.5656364 52.2190992,50.2851818 52.2190992,53.5735909 C52.2190992,58.7127273 59.4257011,57.1881818 59.4257011,60.0192273 C59.4257011,61.1067955 58.1876325,61.6306364 57.0812357,61.6306364 C55.9527464,61.6306364 54.824257,61.0864091 54.1287824,60.1716818 L51.7198067,62.8281136 C53.1734989,64.1771591 54.9099763,64.7648182 56.8859372,64.7648182 C60.0557816,64.7648182 62.8129365,63.1330227 62.8129365,59.6921591 C62.8129365,54.2924318 55.7353553,56.0997273 55.7353553,53.2908409 L55.7353553,53.2908409 Z" id="Fill-57"></path>
                <g id="Group-61" transform="translate(167.019958, 58.693936)">
                    <path d="M3.99310255,6.42790909 C5.47330588,5.87304545 6.22357014,4.21909091 5.67125546,2.73443182 C5.11717338,1.25065909 3.46906639,0.496363636 1.98797935,1.05211364 C0.508659724,1.60697727 -0.242488235,3.26004545 0.310710144,4.74470455 C0.864792227,6.22847727 2.51289922,6.98277273 3.99310255,6.42790909" id="Fill-59"></path>
                </g>
            </g>
        </g>
    </g>
</svg>