<?xml version="1.0" encoding="UTF-8"?>
<svg xmlns="http://www.w3.org/2000/svg" xmlns:xlink="http://www.w3.org/1999/xlink" viewBox="0 0 387.33 140.8"><defs><style>.cls-1{fill:#fcfcfc;}.cls-2{fill:url(#linear-gradient);}.cls-3{fill:url(#linear-gradient-2);}.cls-4{fill:url(#linear-gradient-3);}.cls-5{fill:url(#linear-gradient-4);}.cls-6{fill:url(#linear-gradient-5);}</style><linearGradient id="linear-gradient" x1="1920.7" y1="-3075.19" x2="1976.22" y2="-3023.71" gradientTransform="matrix(-0.8, 0.6, 0.6, 0.8, 3634.16, 1363.29)" gradientUnits="userSpaceOnUse"><stop offset="0" stop-color="#00d0f9"/><stop offset="1" stop-color="#d862db"/></linearGradient><linearGradient id="linear-gradient-2" x1="2468.04" y1="-3525.53" x2="2399.96" y2="-3602.59" gradientTransform="matrix(-0.94, 0.34, 0.34, 0.94, 3752.72, 2591.24)" gradientUnits="userSpaceOnUse"><stop offset="0" stop-color="#e4b533"/><stop offset="1" stop-color="#00d0f9"/></linearGradient><linearGradient id="linear-gradient-3" x1="2468.07" y1="-3525.56" x2="2399.99" y2="-3602.61" gradientTransform="matrix(-1, 0, 0, 1, 2700.91, 3614.24)" xlink:href="#linear-gradient-2"/><linearGradient id="linear-gradient-4" x1="2469.4" y1="-3526.74" x2="2401.32" y2="-3603.79" gradientTransform="matrix(-0.8, -0.61, -0.61, 0.8, 27.85, 4341.85)" xlink:href="#linear-gradient-2"/><linearGradient id="linear-gradient-5" x1="4939.88" y1="1708.14" x2="4946.1" y2="1708.14" gradientTransform="matrix(-0.34, -0.94, -0.94, 0.34, 3519.52, 4096.22)" xlink:href="#linear-gradient-2"/></defs><g id="Layer_2" data-name="Layer 2"><g id="desktop_menu" data-name="desktop menu"><path class="cls-1" d="M16.41,87a10.22,10.22,0,0,1,2.7,3.21A21.56,21.56,0,0,0,24,96.65c9.36,7.86,21.64-5.63,13.1-14.38a26.24,26.24,0,0,0-3.32-2.85h0a13.08,13.08,0,1,1,20-15h0C58.3,76.63,71.37,79,77.46,76.76h0A6.48,6.48,0,1,1,74.73,87a7,7,0,0,1-.67-1h0a17.42,17.42,0,0,0-8-6.65c-11-4.92-19.67,10.4-9.72,17.25l.24.17h0a14.67,14.67,0,1,1-19.48,21.56,14.6,14.6,0,0,1-2.38-4c-5.06-12.67-12.06-13.46-20.83-10h0A10.15,10.15,0,1,1,16.41,87Z"/><path class="cls-1" d="M300.35,91.6a12.63,12.63,0,0,1,3.37,4,26.64,26.64,0,0,0,6,8c11.67,9.8,27-7,16.34-17.93a34.61,34.61,0,0,0-4.15-3.55h0a16.54,16.54,0,0,1-2.85-2.65,16.31,16.31,0,0,1,23.33-22.67,16.11,16.11,0,0,1,4.47,6.56v0c5.65,15.3,21.94,18.27,29.53,15.46h0a8.09,8.09,0,1,1-4.23,11.57h0c-1.7-3-5.29-6.22-10-8.3-13.76-6.13-24.52,13-12.12,21.51l.3.21h0a18.28,18.28,0,1,1-27.25,21.9c-6.3-15.79-15-16.77-26-12.41h0a12.65,12.65,0,1,1,3.11-21.71Z"/><path class="cls-2" d="M235.51,121.66a10.93,10.93,0,0,1,3.52-2c6.53-2.38,9.34-5.56,9.71-9.66a11.45,11.45,0,0,0-6.18-11.2,12.9,12.9,0,0,0-12.21.29h0a6,6,0,0,1-7.89-1.52,6.16,6.16,0,0,1-.23-7A5.75,5.75,0,0,1,225,88.24h0c5.6-2.3,7.43-6.7,5.12-12.3h0a6.05,6.05,0,1,1,9.24,2.52,5.83,5.83,0,0,1-1.35.76h0c-3.53,1.45-5.56,3.73-6,6.62a7.77,7.77,0,0,0,3.73,7.73,13.14,13.14,0,0,0,14.82-.69h0a8.48,8.48,0,1,1,8.38,14.64h0c-7.59,3.39-10.67,8.16-6.31,17.91h0a10.9,10.9,0,1,1-17.1-3.79Z"/><path class="cls-3" d="M255.74,66.92a10.18,10.18,0,0,1,3.93-1.4,21.42,21.42,0,0,0,7.67-2.3c10.57-6,2.24-22.12-8.88-17.19a27.81,27.81,0,0,0-3.8,2.11h0a13,13,0,1,1-13.25-22.35,12.69,12.69,0,0,1,6.15-1.52v0c13,0,19.75-11.34,19.77-17.8h0a6.49,6.49,0,1,1,7.48,6.37h0a17.49,17.49,0,0,0-9,5.15c-8.41,8.59,2.88,21.94,12.72,15l.24-.17h0a14.59,14.59,0,1,1,13.36,25.63,14.78,14.78,0,0,1-4.54.84c-13.57.32-16.73,6.58-16.5,16h0a10.1,10.1,0,1,1-15.38-8.36Z"/><circle class="cls-4" cx="262.58" cy="55.02" r="5.28" transform="translate(-3.25 91.18) rotate(-19.58)"/><circle class="cls-5" cx="272.77" cy="24.88" r="6.8" transform="matrix(0.55, -0.84, 0.84, 0.55, 102.74, 239.62)"/><path class="cls-6" d="M250.66,12.58a3.11,3.11,0,1,0,1.89-4A3.12,3.12,0,0,0,250.66,12.58Z"/></g></g></svg>