<?xml version="1.0" encoding="UTF-8"?>
<svg xmlns="http://www.w3.org/2000/svg" xmlns:xlink="http://www.w3.org/1999/xlink" viewBox="0 0 110.51 143.13"><defs><style>.cls-1{fill:url(#linear-gradient);}.cls-2{fill:#fcfcfc;}.cls-3{fill:url(#linear-gradient-2);}.cls-4{fill:url(#linear-gradient-3);}.cls-5{fill:url(#linear-gradient-4);}.cls-6{fill:url(#linear-gradient-5);}</style><linearGradient id="linear-gradient" x1="3862.98" y1="-3554.9" x2="3905.83" y2="-3515.16" gradientTransform="matrix(-0.93, 0.38, 0.38, 0.93, 4987.36, 1843.26)" gradientUnits="userSpaceOnUse"><stop offset="0" stop-color="#00d0f9"/><stop offset="1" stop-color="#d862db"/></linearGradient><linearGradient id="linear-gradient-2" x1="4454.35" y1="-3949.08" x2="4384.28" y2="-4028.4" gradientTransform="matrix(-0.94, 0.34, 0.34, 0.94, 5573.12, 2382.44)" gradientUnits="userSpaceOnUse"><stop offset="0" stop-color="#e4b533"/><stop offset="1" stop-color="#00d0f9"/></linearGradient><linearGradient id="linear-gradient-3" x1="4454.38" y1="-3949.11" x2="4384.31" y2="-4028.42" gradientTransform="matrix(-1, 0, 0, 1, 4493.85, 4095.38)" xlink:href="#linear-gradient-2"/><linearGradient id="linear-gradient-4" x1="4455.75" y1="-3950.32" x2="4385.68" y2="-4029.63" gradientTransform="matrix(-0.8, -0.61, -0.61, 0.8, 1157.94, 5937.73)" xlink:href="#linear-gradient-2"/><linearGradient id="linear-gradient-5" x1="6287.16" y1="2730.28" x2="6293.56" y2="2730.28" gradientTransform="matrix(-0.34, -0.94, -0.94, 0.34, 4741.33, 5078.45)" xlink:href="#linear-gradient-2"/></defs><g id="Layer_2" data-name="Layer 2"><g id="desktop_menu" data-name="desktop menu"><path class="cls-1" d="M51,40.46a8.46,8.46,0,0,1,3-.82c5.34-.47,8.07-2.28,9.16-5.27a8.83,8.83,0,0,0-2.37-9.58,9.94,9.94,0,0,0-9.16-2.22h0a4.66,4.66,0,0,1-5.58-2.71,4.74,4.74,0,0,1,1.23-5.27,4.41,4.41,0,0,1,2.49-1.15h0c4.64-.61,6.88-3.52,6.28-8.15h0A4.68,4.68,0,1,1,62.46,9a4.84,4.84,0,0,1-1.16.3h0c-2.92.38-4.89,1.68-5.8,3.74a6,6,0,0,0,1.24,6.51A10.14,10.14,0,0,0,67.94,22h0A6.54,6.54,0,1,1,71.26,34.6h0c-6.34,1-9.59,4-8.28,12.1h0a8.42,8.42,0,1,1-12-6.24Z"/><path class="cls-2" d="M12.09,74.21a8,8,0,0,1,2.32,2.28,16.68,16.68,0,0,0,4.21,4.59c7.8,5.36,16.26-6,9-12.06a22.1,22.1,0,0,0-2.78-2h0A10.31,10.31,0,0,1,23,65.6,10.13,10.13,0,1,1,39.19,54v0c4.41,9.12,14.66,10,19.18,7.8h0A5,5,0,1,1,57,69.87a5.4,5.4,0,0,1-.59-.69h0a13.49,13.49,0,0,0-6.65-4.53c-8.87-3-14.38,9.48-6.21,14l.2.11h0A11.36,11.36,0,1,1,28.25,94C23.41,84.56,18,84.48,11.46,87.83h0a7.86,7.86,0,1,1,.63-13.61Z"/><path class="cls-3" d="M63,123.88a10.3,10.3,0,0,1,4-1.44A22.25,22.25,0,0,0,75,120.08c10.89-6.19,2.31-22.78-9.13-17.71a28,28,0,0,0-3.92,2.18v0A13.14,13.14,0,0,1,59.07,106,13.39,13.39,0,0,1,48.28,81.53,13.21,13.21,0,0,1,54.61,80h0C68,80,74.94,68.27,75,61.63h0a6.64,6.64,0,1,1,8.87,6.27,6.25,6.25,0,0,1-1.17.29h0a17.88,17.88,0,0,0-9.23,5.29c-8.66,8.84,3,22.59,13.1,15.48l.24-.17h0A15,15,0,1,1,95.85,116c-14,.34-17.22,6.78-17,16.44h0A10.39,10.39,0,1,1,63,123.88Z"/><circle class="cls-4" cx="70.08" cy="111.63" r="5.43" transform="translate(-33.36 29.94) rotate(-19.58)"/><circle class="cls-5" cx="80.57" cy="80.61" r="7" transform="translate(-30.98 103.96) rotate(-56.84)"/><path class="cls-6" d="M57.81,68a3.2,3.2,0,1,0,1.94-4.09A3.2,3.2,0,0,0,57.81,68Z"/></g></g></svg>