<svg xmlns="http://www.w3.org/2000/svg" viewBox="0 0 270.03851 126.16025">
  <path d="M154.13111 116.43018c.48402 3.57046-1.90888 6.87282-5.34493 7.37588-3.31117.48507-6.38669-1.82527-7.03827-5.1883 0 0-2.25143-13.78656-3.50344-18.25555-3.49109-12.46152-19.68323-25.06133-25.11495-41.759-7.01534-21.56708.17639-44.57524 24.34025-53.97218 24.16352-9.39765 49.03506.40005 60.69366 21.2044 13.91531 24.83062 9.2389 74.88309 2.5788 92.78233-1.252 3.36303-3.98745 5.83106-7.38999 5.12621-3.27942-.6791-5.44724-3.91619-4.99321-7.31379" fill="#57d1e5" stroke="#3b2d55" stroke-width="2.1166799999999997" stroke-linecap="round" stroke-linejoin="round" stroke-miterlimit="10"/>
  <path d="M159.4631 116.6741c.3535 3.58704-2.15793 6.79308-5.60986 7.16032-3.326.35348-6.31367-2.07539-6.84425-5.45994l-2.82363-18.2753" fill="#57d1e5"/>
  <path d="M160.52007 116.62171s.00952.14923.0268.42863c.0046.06985.00953.14781.01483.23389-.00247.10583-.00494.22154-.00777.34643-.00493.12594-.00987.26105-.01516.40498-.00847.14253-.03387.27835-.05292.43075-.07197.60148-.25577 1.32468-.59902 2.09938-.3436.77223-.86254 1.59843-1.61925 2.3301-.75036.72954-1.73073 1.37794-2.89172 1.74342-.29421.07267-.58596.17886-.8957.2159-.15381.02434-.30798.04904-.46355.07338l-.02928.00459-.01446.00211-.06915.00565-.04974.00282-.10054.00529-.20144.01164c-.23424.0261-.63112.00282-.97084-.0134-.17145-.0134-.32597-.0448-.49107-.06809-.16263-.02293-.32526-.05045-.48507-.0963-1.29328-.30022-2.52236-.99378-3.4925-1.96498-.48895-.48436-.89605-1.04775-1.2439-1.645-.34042-.60396-.5849-1.2573-.76446-1.92546-.15946-.71403-.21943-1.27106-.30621-1.86443-.08361-.58914-.16616-1.17617-.24907-1.75825-.16404-1.16487-.32631-2.31105-.48295-3.42018-.32138-2.21756-.58173-4.29295-.8248-6.06919-.4713-3.55423-.75282-5.92843-.75282-5.92843-.04621-.38735.23072-.73836.61807-.78458.3697-.04374.70696.2092.77646.56868 0 0 .44838 2.34915 1.07139 5.87975.30444 1.76671.68262 3.82376 1.04528 6.03497.1852 1.1049.37676 2.24649.57114 3.40642.09737.58032.1958 1.16487.29422 1.75154.09878.58244.19509 1.21109.30057 1.66264.1397.48296.31926.95391.56973 1.38571.25824.4251.5521.82797.90558 1.16805.70133.68368 1.56987 1.1564 2.4638 1.35114.10937.0328.22225.04904.33479.06209.11007.0134.22754.03669.3302.04445.2099.0007.35772.0388.6611.01023.46038-.00706.87243-.10866 1.27953-.21978.80328-.25083 1.48625-.70168 2.0186-1.21532.53163-.51753.91616-1.0975 1.17016-1.64924.25365-.5521.39829-1.07068.45367-1.506.01411-.10654.03845-.2145.04375-.30375.00564-.08854.01128-.17145.01587-.2487.00706-.07797.0127-.14958.018-.21555-.00318-.08573-.00565-.16404-.00812-.2339-.01058-.2801-.01588-.42932-.01588-.42932-.02152-.5842.43463-1.07527 1.01883-1.09679.57432-.02081 1.05868.42192 1.09502.99201" fill="#3b2d55"/>
  <path d="M198.30518 100.09904l-2.82505 18.27565c-.54962 3.55988-3.77366 5.98276-7.19949 5.4109-3.30129-.55138-5.58376-3.69957-5.25427-7.11164" fill="#57d1e5"/>
  <path d="M199.00248 100.2069s-.28187 2.37419-.75354 5.92877c-.24306 1.77589-.5034 3.85163-.82514 6.06884-.15699 1.10913-.31891 2.2553-.48366 3.42018-.0822.58208-.1651 1.16946-.2487 1.75825l-.12525.88547-.0321.22154-.02857.16122-.02223.10972-.08713.43956c-.0381.16016-.09843.3503-.14923.52352-.0515.18027-.10865.35383-.17815.50835l-.20003.47978-.24306.45932c-.34114.60148-.75036 1.16734-1.2439 1.64747-.23212.254-.50905.45967-.768.68121-.28363.19015-.5535.4004-.85724.55316-.58526.3422-1.2252.57185-1.86584.7313-.64453.1591-1.30175.2032-1.93817.18098-.1598.00106-.31644-.02857-.47272-.04269l-.23424-.02751-.11607-.01411-.02892-.00318-.07973-.01587-.04868-.01094a225.28987 225.28987 0 0 1-.38347-.08467c-.06738-.01658-.11783-.02152-.19897-.04797l-.23495-.07338c-.15487-.05115-.30939-.1023-.4625-.15275-.13616-.06033-.27234-.1203-.4071-.17992-.2741-.10972-.51823-.26882-.76764-.4064-.24236-.14852-.46708-.31609-.68898-.47696-.20531-.18027-.4205-.3436-.6029-.5327-.75282-.73518-1.27105-1.55962-1.61677-2.33044-.17816-.38488-.29599-.76306-.40394-1.11266-.08008-.35666-.16968-.68157-.1979-.98425-.0187-.15029-.03705-.29245-.05433-.42651a615.16829 615.16829 0 0 1-.01376-.37888c-.01094-.23495-.01235-.43463.00282-.5962.02046-.32279.0314-.49495.0314-.49495.03669-.58278.53834-1.02481 1.12042-.98813.57044.03563 1.00683.51859.98954 1.0855l-.00317.10583s-.00424.12595-.0113.36266c-.01022.11783-.00422.26317.00918.43392.0053.08537.01023.1771.01588.27446.0141.09666.02998.19967.04586.30833.0201.21942.09525.45226.15204.71014.08502.25047.17075.52281.3048.79728.25647.5521.64135 1.1317 1.16982 1.65276.12805.13511.28257.24483.4251.37465.15663.11007.3129.22895.48189.33196.17568.09208.3422.20885.53375.28046.09313.04163.18768.0836.28187.12594.08749.02858.17533.05715.26388.08608l.13229.04727c.04092.01658.1203.02822.17886.04269.12735.02787.25506.05574.38347.08431l.04833.01059.01234.00247c-.0208-.00389.0635.0127-.04339-.00847l.02011.00212.08079.00846.16228.01764c.10865.00847.21695.03422.32737.03034.21978-.00388.4431.01587.66534-.0187.11148-.01446.22507-.01376.33655-.03492l.33514-.06562c.44344-.10654.89147-.25541 1.30387-.49354.21625-.10054.40393-.25329.60854-.38029.18168-.15875.38453-.29598.54892-.47837.35737-.33443.65193-.73765.90276-1.16557l.18062-.32738.14676-.34537c.05609-.11712.09137-.22684.12241-.33373.03387-.11324.07303-.20532.10725-.33478l.09278-.43815.02257-.10972.01165-.05468c.00917-.0501-.00882.05256-.006.03669l.00212-.01376.00388-.02752.03668-.22083.14782-.88195c.09842-.58702.1965-1.17157.29386-1.7519.19474-1.15993.3863-2.30152.5715-3.40642.36301-2.2105.74154-4.26825 1.04564-6.03426.62335-3.53095 1.07209-5.87975 1.07209-5.87975.07302-.38311.44309-.6343.8262-.56127.36548.06985.6103.41275.56833.77682" fill="#3b2d55"/>
  <path d="M167.44506 117.04617c.15416 3.60221-2.53048 6.65233-5.99722 6.81355-3.3394.15452-6.18702-2.44792-6.52992-5.85717l-1.80481-18.30599" fill="#57d1e5"/>
  <path d="M168.50339 117.05234s.00106.14887.00317.42827c.0007.06985.00106.14782.00177.2339-.00847.10512-.01729.22013-.02681.3443-.012.12489-.02435.25894-.03775.40217-.01517.14217-.04904.27552-.07585.42651-.10407.59549-.32773 1.30563-.7119 2.05881-.38488.75071-.94862 1.54587-1.74378 2.23238-.78882.6851-1.80376 1.27388-2.98098 1.57233-.58702.1337-1.2139.23495-1.83726.21555-.23636.01129-.6216-.03175-.96203-.0695-.17357-.0201-.32314-.0628-.48613-.09454-.16051-.03422-.32208-.06774-.47836-.12312-.63853-.17533-1.2432-.47908-1.81893-.82903-.5729-.36054-1.08655-.81421-1.55186-1.31586-.4565-.51047-.83785-1.08867-1.15465-1.70074-.30162-.62125-.52422-1.27953-.66463-1.95545-.0321-.16933-.05186-.34078-.07761-.51082l-.03563-.25577-.02082-.22507-.07584-.8883c-.05045-.5916-.10125-1.18074-.15064-1.76494a20086.7414 20086.7414 0 0 1-.29386-3.43288c-.19826-2.22568-.34396-4.30707-.48825-6.0886-.2741-3.56587-.42368-5.94606-.42368-5.94606-.0247-.38912.27093-.7246.66004-.74895.37183-.02328.69462.24765.74401.6103 0 0 .31856 2.36397.74577 5.91433.20638 1.77553.47026 3.84527.71015 6.06671.12417 1.1109.25223 2.25813.3824 3.42407.06527.58314.13089 1.17086.19686 1.7607l.09878.88619.02328.21942.02963.18627c.02152.12383.03528.24906.05997.37183.11007.49036.27693.9645.49813 1.4104.23636.4371.51294.8502.84384 1.2111.33796.35136.7045.67168 1.11055.91933.40851.23636.82938.4498 1.27317.56127.8576.25541 1.7914.24024 2.60068.04657.81315-.20497 1.51906-.61313 2.0768-1.09397.55774-.48471.97296-1.0407 1.25554-1.57515.28257-.53587.45543-1.04352.5341-1.4739.05468-.21979.07197-.39512.09031-.54646a26.96648 26.96648 0 0 1 .02928-.21414c.00177-.08572.00318-.16368.00459-.23353.00494-.2794.00776-.42828.00776-.42828.01094-.5842.49354-1.04951 1.07809-1.03857.57468.01093 1.034.47977 1.03858 1.05092" fill="#3b2d55"/>
  <path d="M189.3765 99.69667l-1.8048 18.306c-.3542 3.58704-3.43888 6.19689-6.89081 5.82964-3.32458-.35418-5.77638-3.3609-5.63598-6.78603" fill="#57d1e5"/>
  <path d="M190.07865 99.76592s-.14923 2.3802-.42369 5.94572c-.14428 1.78188-.28963 3.86327-.48824 6.08894-.0949 1.11337-.19368 2.26378-.29351 3.43288-.05045.5842-.10055 1.17334-.151 1.76495l-.07655.8883-.02645.2741-.0314.2212-.06315.44308c-.1584.73943-.35913 1.38889-.6738 2.0066-.31292.61348-.68721 1.2005-1.15465 1.7025-.2173.26565-.4826.48437-.72954.7172-.26987.20744-.52917.42757-.82232.59761-.56445.37112-1.18675.63818-1.81716.8308-.63183.1979-1.28411.27375-1.91876.29103-.1591.00847-.31644-.01058-.47343-.01587l-.23424-.01305-.11677-.00706-.01482-.00106-.0688-.00917-.02469-.00353-.04833-.00776c-.27058-.04868-.4826-.06103-.82832-.1584a263.33706 263.33706 0 0 1-.46884-.12558c-.14005-.05257-.2787-.10407-.41663-.15558-.27975-.09384-.53164-.23918-.7881-.3609-.24942-.13546-.48437-.28821-.71332-.43708-.21484-.16793-.43956-.31786-.63112-.49671-.79199-.69004-1.35432-1.48379-1.74096-2.23273-.19932-.3736-.3362-.74437-.46426-1.0862-.09877-.35137-.20567-.66993-.25047-.97015a409.9013 409.9013 0 0 0-.07726-.42157c-.0127-.13405-.02399-.26-.03492-.37676-.024-.23354-.03598-.43215-.02963-.59373.00282-.32279.00423-.4953.00423-.4953.00388-.58314.48083-1.05269 1.06433-1.0481.57115.00423 1.03364.46179 1.04775 1.0294l.00247.10549s.00317.12594.00882.36195c-.00353.11782.01023.26246.03316.43144.00952.08467.01975.17569.03034.2727.0201.09525.04092.1972.06314.3041.03175.2173.11924.44485.1898.69885.09913.24412.19826.51082.34713.77646.2854.53481.70027 1.09044 1.2559 1.57868.13405.12806.29456.22754.44308.3489.16157.10125.32456.20884.49848.30304.17956.08043.35171.18803.5468.248.09525.03633.19085.07232.28751.109.0889.02329.17816.04728.26812.07091.14393.05715.45226.08996.69885.1323l.04868.00776.0247.00388c.05362.0074-.05998-.00741-.0448-.006l.00987.00035.08114.00353.16263.00776c.10866.00247.21837.01976.32808.012.21837-.01835.44203-.00882.66146-.05715.11007-.02046.22296-.02858.33302-.05363l.32985-.08537c.43674-.12911.87383-.30515 1.27247-.56409.20955-.1136.39017-.27234.58561-.41275.17357-.16686.36936-.31397.52317-.50447.34043-.35137.6089-.77153.84173-1.20862.23636-.43744.37853-.93839.49-1.35784l.0681-.44027.03421-.22083c-.012.09807-.00247.01905-.00494.03739l.00177-.01411.00282-.02752.00565-.05538.01199-.11113.09878-.88618c.06597-.5902.13158-1.17757.19685-1.76071.13017-1.16593.25788-2.31316.38206-3.42406.24024-2.22144.50412-4.2912.71049-6.06707.42721-3.55.74577-5.91397.74577-5.91397.05186-.3863.40746-.65758.7941-.60537.3683.04974.63183.37853.60996.74401" fill="#3b2d55"/>
  <path d="M178.03457 99.17988l-.50906 18.34445c-.10054 3.60433-2.99332 6.44172-6.46183 6.33835-3.34045-.10054-5.99722-2.91253-6.09918-6.33835l-.50905-18.34445" fill="#57d1e5"/>
  <path d="M178.7398 99.19953s.00142.8823.00318 2.4264c.00882 1.54411-.006 3.74933-.02787 6.39551-.01587 2.6462-.07867 5.7323-.12276 9.03958l-.00494.3108-.00247.15557-.0127.20744-.02223.31256c-.01058.10971-.0074.19403-.0328.33302-.04199.25365-.07867.52035-.13582.76447-.06527.236-.12242.47625-.19968.71014-.31291.93733-.81491 1.82669-1.48096 2.59045-.66498.76412-1.49507 1.40194-2.43205 1.84256-.93556.44203-1.97873.6805-3.02048.68403l-.1958.00283c-.03315-.00106.04058.00388-.08078-.00283l-.02046-.00176-.04127-.00353-.08255-.00705-.3295-.02893c-.05715-.00565-.10336-.00635-.1704-.01658l-.20813-.03599-.41451-.07725c-.27164-.0575-.5066-.14111-.76024-.21343a14.55927 14.55927 0 0 1-.72143-.29352c-.93627-.44555-1.76318-1.08726-2.42605-1.85173-.66393-.76447-1.16523-1.65135-1.48096-2.5862-.15805-.46744-.26776-.94722-.33585-1.4284-.04198-.23954-.04374-.48225-.06456-.72214-.01058-.1256-.01305-.23354-.01481-.33373l-.00459-.3108c-.0441-3.30729-.10619-6.39339-.12277-9.03958-.02152-2.64618-.03633-4.8514-.02716-6.3955l.00388-2.4264c.0007-.38983.3168-.70556.70697-.70486.375.0007.68156.29598.70344.6657 0 0 .0501.88088.13828 2.42216.09525 1.5413.2025 3.74404.32774 6.3874.12982 2.64336.23953 5.72805.37888 9.03252l.012.31045c.00317.10724.00634.20743.01587.28927.02081.17428.0187.35243.05362.526.05398.3496.13688.69673.25506 1.03363.23636.6738.60642 1.30916 1.0869 1.84962.47978.5408 1.06963.98601 1.72368 1.2887a17.4267 17.4267 0 0 0 .502.1979c.17075.04269.35243.1076.51259.13794l.2353.04269.11712.02398c.04163.00812.10619.00918.15805.01447l.32984.0247.0822.00634.04163.00318.0201.00176c-.10724-.00635-.01975-.00212-.03915-.00388l.13511-.00423c1.44463.01905 2.86491-.64453 3.8234-1.73038.48155-.53869.8509-1.17369 1.0841-1.8482.0575-.16898.09807-.34255.15063-.51259.04057-.16615.05927-.3189.0949-.47766.02081-.06632.02222-.19332.0328-.29104l.0254-.3122.00671-.07797.00317-.0388c.00283-.05257-.00211.04974-.0014.0321l.00035-.01976.00564-.15557.0127-.31045c.13935-3.30447.248-6.38916.37924-9.03252.12417-2.64336.23212-4.8461.32632-6.38704.08749-1.54164.13793-2.42253.13793-2.42253.02187-.38946.3556-.68686.74472-.66463.375.02117.66428.33302.66569.7038" fill="#3b2d55"/>
  <path d="M125.8848 57.06534c-6.95748-8.90587-5.3788-21.76639 3.52672-28.72175 8.90341-6.9582 21.76322-5.3788 28.7207 3.52777 6.95678 8.90553 5.37845 21.76463-3.52672 28.72105-8.9041 6.95713-21.76392 5.3774-28.7207-3.52707" fill="#fff"/>
  <path d="M125.8848 57.06534c-6.95748-8.90587-5.3788-21.76639 3.52672-28.72175 8.90341-6.9582 21.76322-5.3788 28.7207 3.52777 6.95678 8.90553 5.37845 21.76463-3.52672 28.72105-8.9041 6.95713-21.76392 5.3774-28.7207-3.52707z" fill="none" stroke="#3b2d55" stroke-width="2.1166799999999997" stroke-linecap="round" stroke-linejoin="round" stroke-miterlimit="10"/>
  <path d="M146.04789 58.63834c2.34561-2.72768-1.87678-9.27947-4.84752-9.64459-1.95263-.23918-4.47781 1.14582-5.07365.38312-.59585-.7627 1.3589-2.88043 1.59914-4.83059.36442-2.97004-4.96994-8.65329-8.1841-7.03756-3.8354 1.92793-5.73475 9.85167-.08748 17.08008 5.64797 7.22913 13.79537 7.30356 16.5936 4.04954" fill="#3b2d55"/>
  <path d="M173.0285 43.1616c3.90032-7.1995 18.29436-3.88656 19.34775-9.73174 1.14089-6.33095-7.5953-15.62488-20.32811-4.88844" fill="#b03831"/>
  <path d="M172.26475 42.72062s.02505-.04198.07443-.12382c.05045-.08255.11254-.19403.24307-.38418.24306-.36407.60466-.83679 1.15993-1.36984.5528-.5274 1.29717-1.07879 2.20733-1.55398.90946-.47766 1.9745-.88865 3.1436-1.22837 1.17087-.34185 2.44617-.6096 3.78355-.85937 1.33597-.24906 2.73896-.48542 4.13878-.81174.69745-.16651 1.39665-.3549 2.05776-.6082.65863-.25223 1.28623-.57043 1.76106-.99765.4812-.42756.77047-.94826.86431-1.5935.10971-.68862.08396-1.40228-.04586-2.10467-.266-1.40723-.95497-2.74178-1.89442-3.81246-.94156-1.07386-2.13854-1.87855-3.4103-2.3481-1.27388-.47342-2.61408-.60395-3.86856-.50976-1.258.09278-2.43382.4064-3.48262.79657-1.04952.39582-1.97027.87877-2.76084 1.3515-.79128.47272-1.4531.93733-1.98861 1.33314-.53305.39935-.93839.73308-1.21215.9638a251.8607 251.8607 0 0 0-.41874.3556l-.01552.0134c-.37113.31503-.92781.26987-1.2432-.1009-.31573-.37147-.27057-.92815.10055-1.2439.006-.00458.01517-.01234.02116-.01692 0 0 .15805-.1263.45403-.3623.29563-.23602.73907-.57186 1.3155-.98426.58033-.4078 1.29823-.88794 2.1636-1.3776.86254-.49282 1.87889-.9846 3.04094-1.40934 1.16346-.41452 2.48497-.75 3.9257-.83573 1.4351-.0896 2.99368.08749 4.48205.6551 1.48908.5574 2.88996 1.5099 3.98392 2.77037 1.0915 1.25871 1.89195 2.81446 2.20486 4.50286.15346.84243.17921 1.72155.04445 2.58021-.06526.4438-.20778.9204-.43427 1.33844-.22578.42157-.5327.78917-.86818 1.09467-.67875.61172-1.45133.98813-2.20098 1.2834-.75424.29316-1.5046.49742-2.23838.67734-1.46861.35101-2.8769.58914-4.18994.8636-1.31304.26846-2.53577.54822-3.62373.88618-1.08868.33408-2.04223.72566-2.81552 1.16416-.77682.43427-1.37196.90629-1.80235 1.33985-.42791.42933-.70873.83538-.86465 1.08868-.07656.1143-.14888.25188-.19438.33337-.04622.08326-.06985.1263-.06985.1263-.23566.42615-.77223.58067-1.19839.34536-.4265-.236-.58103-.77293-.34537-1.19909.00459-.00846.01094-.0201.01623-.02822" fill="#3b2d55"/>
  <path d="M185.18834 30.81645s-.04904-.0187-.14111-.05327c-.0896-.02963-.23566-.09842-.39018-.13335-.07937-.02187-.16721-.04621-.26352-.07267a128.13899 128.13899 0 0 1-.32985-.06562c-.23671-.03845-.50694-.07161-.80468-.0836-.2974-.01376-.62195-.00389-.9652.01975-.34326.03387-.7045.07832-1.07527.15487-.37183.06844-.75106.17145-1.13312.28328-.38136.11783-.76553.2487-1.1416.40217-1.50953.59795-2.9104 1.4732-3.78882 2.2486-.21908.19332-.40746.37853-.55492.54716-.14817.16792-.2653.31856-.33479.4378-.04198.06068-.06738.11218-.08714.15557-.02293.0441-.04198.08044-.04656.10513-.0187.0508-.02823.07761-.02823.07761l-.03175.08678c-.13335.36584-.53798.55492-.90381.42157-.36583-.133-.55457-.53798-.42122-.90381a.48276.48276 0 0 1 .00917-.024s.02893-.07055.08255-.2032c.02681-.06984.06562-.14004.11254-.22048.04586-.08431.10125-.17568.16792-.26388.12877-.1905.29916-.38488.50095-.59125.20143-.20602.43815-.41487.70344-.62548 1.06186-.8382 2.60173-1.68204 4.25414-2.24084.41099-.14288.83044-.26247 1.24672-.36724.41804-.09843.83185-.18733 1.24001-.2413.4057-.06174.80398-.09031 1.18146-.1069.37958-.0067.73907.00142 1.07068.03423.3316.03104.6343.0836.90029.14181.13193.03387.25611.06562.37041.09455.11607.0388.2226.07443.31891.10689.20109.06315.31398.127.40993.1651.09031.03916.13864.05997.13864.05997.1785.07832.25965.28646.18204.46496-.07515.17251-.27376.25435-.44803.1891" fill="#3b2d55"/>
  <path d="M169.13522 53.33532s.0501-.10865.14428-.31256c.09843-.20602.22931-.50165.38383-.8696.31503-.74894.7373-1.84503 1.14582-3.187.20038-.67239.41487-1.40158.59725-2.1844.19085-.78034.36195-1.61077.50483-2.47367.14816-.86219.2607-1.75824.3489-2.66947.0896-.91158.12488-1.84044.1351-2.76648.00389-.92675-.04268-1.84997-.12029-2.75414-.09878-.901-.20285-1.78646-.37924-2.62784-.07302-.42369-.1852-.83044-.27234-1.23366-.11465-.39547-.20708-.78881-.33196-1.15994-.12171-.37218-.23213-.73695-.36936-1.07809-.12171-.34678-.24589-.67945-.38312-.9913-.06526-.15734-.12912-.31115-.1912-.46179-.07056-.1471-.13865-.29069-.20497-.43074-.13158-.28081-.25858-.54575-.39052-.78881-.24624-.49495-.49425-.90805-.69745-1.24954-.19896-.34396-.38629-.59372-.49918-.77435a81.20321 81.20321 0 0 1-.17956-.2727l-.0321-.04797c-.32174-.48719-.18768-1.1437.2995-1.46544.47731-.31538 1.11725-.19191 1.44604.27129 0 0 .07267.10265.2092.29527.13159.19544.34643.46884.57997.84279.23706.37182.52599.82303.81738 1.36454.15699.26494.29845.5595.44627.8703.07478.15523.15134.31468.22965.47767.07056.1665.14253.33655.21626.51011.3055.6911.57256 1.46509.81491 2.29306.12841.41169.22296.84455.33938 1.28129.08854.44238.20108.8904.2727 1.35325.17074.9211.27551 1.88137.34924 2.8568.0568.97613.07797 1.96814.04622 2.95627-.0388.98778-.10478 1.97344-.22649 2.93547-.11994.96167-.26423 1.9043-.45896 2.80458-.36795 1.80517-.86219 3.45123-1.34514 4.8387-.50024 1.38395-.99695 2.50155-1.3716 3.27942-.1905.39511-.34255.69392-.44732.88794a98.20608 98.20608 0 0 0-.16017.30516c-.18132.34501-.60783.47801-.95285.29668-.33408-.17533-.46813-.58208-.31291-.9211" fill="#3b2d55"/>
  <path d="M240.37668 24.58082l15.7801 24.37095v-.00036L202.43825 83.7339" fill="none" stroke="#3b2d55" stroke-width="2.1166799999999997" stroke-linecap="round" stroke-linejoin="round" stroke-miterlimit="10"/>
  <path d="M76.4287 112.05733c2.8642 7.62141 10.21962 13.04466 18.84222 13.04466H21.18053c-11.1132 0-20.12209-9.00923-20.12209-20.12209 0-8.89035 7.20725-16.09725 16.09725-16.09725h74.0911c7.112 0 12.8778 5.76545 12.8778 12.87816 0 5.6896-4.61258 10.30217-10.30288 10.30217h-17.393z" fill="#fff"/>
  <path d="M95.271 125.10181c-11.11321 0-20.1221-9.00888-20.1221-20.12174 0-8.89035 7.2076-16.0976 16.09796-16.0976 7.112 0 12.8778 5.7658 12.8778 12.87815 0 5.68996-4.61292 10.30217-10.30288 10.30217-4.55153 0-8.24159-3.6897-8.24159-8.2416 0-3.64172 2.95204-6.59376 6.59377-6.59376 2.91324 0 5.27473 2.36185 5.27473 5.27473 0 2.3308-1.88948 4.21993-4.21993 4.21993M21.18042 125.10181c-11.1132 0-20.12209-9.00888-20.12209-20.12174 0-8.89035 7.2076-16.0976 16.0976-16.0976M17.15587 88.88251h74.09075M92.17386 97.22757H77.136M93.82164 112.06283H76.43252M21.18042 125.10181h205.32302M93.22872 106.72224h-6.99381" fill="none" stroke="#3b2d55" stroke-width="2.1166799999999997" stroke-linecap="round" stroke-linejoin="round" stroke-miterlimit="10"/>
  <path d="M109.73936 116.2066c-3.58069 2.3181-8.27546 6.35034-8.27546 6.35034l1.17299 1.81187s5.6-2.63454 9.1814-4.95335" fill="#657bc4" stroke="#3b2d55" stroke-width="2.1166799999999997" stroke-miterlimit="10"/>
  <path d="M101.53142 122.66063l-.71684.4632c-.44309.28751-.56938.87877-.28257 1.3222.28645.4431.87912.56975 1.3215.28329l.7172-.4639" fill="#3b2d55" stroke="#3b2d55" stroke-width="2.1166799999999997" stroke-miterlimit="10"/>
  <path d="M123.0078 98.83987c-10.1533 6.57472-16.8723 18.85844-16.8723 18.85844l2.84585 4.39526s13.95836-1.10525 24.11024-7.67997" fill="#fff" stroke="#3b2d55" stroke-width="2.1166799999999997" stroke-linejoin="round" stroke-miterlimit="10"/>
  <path d="M245.21979 21.3745l15.85524-8.50124c1.1035-.5916 2.56223-.21554 3.24274.83503l4.26966 6.5927c.68016 1.05093.42651 2.53613-.5648 3.30024l-14.24516 10.99044" fill="#b03831" stroke="#3b2d55" stroke-width="2.1166799999999997" stroke-linejoin="round" stroke-miterlimit="10"/>
  <path d="M121.23907 98.03992s26.21104-22.14421 61.86911-45.23458c35.65948-23.09106 59.6325-37.7197 65.13477-36.94465 3.82235.53834 5.41832 3.3087 8.20914 7.61894 2.79188 4.31095 4.6669 6.90104 3.5941 10.60909-1.54375 5.33788-24.70009 21.22805-60.35922 44.31806-35.65877 23.09072-66.58821 37.9483-66.58821 37.9483z" fill="#fbb634"/>
  <path d="M121.23907 98.03992s26.21104-22.14421 61.86911-45.23458c35.65948-23.09106 59.6325-37.7197 65.13477-36.94465 3.82235.53834 5.41832 3.3087 8.20914 7.61894 2.79188 4.31095 4.6669 6.90104 3.5941 10.60909-1.54375 5.33788-24.70009 21.22805-60.35922 44.31806-35.65877 23.09072-66.58821 37.9483-66.58821 37.9483z" fill="none" stroke="#3b2d55" stroke-width="2.1166799999999997" stroke-linejoin="round" stroke-miterlimit="10"/>
  <path d="M235.383 20.39642c1.22414-.64205 2.37384-1.22379 3.44593-1.74237l14.81667 22.88187c-.91158.76624-1.91241 1.57692-3.00002 2.4317z" fill="#b03831"/>
  <path d="M235.383 20.39642c1.22414-.64205 2.37384-1.22379 3.44593-1.74237l14.81667 22.88187c-.91158.76624-1.91241 1.57692-3.00002 2.4317z" fill="none" stroke="#3b2d55" stroke-width="2.1166799999999997" stroke-linecap="round" stroke-linejoin="round" stroke-miterlimit="10"/>
</svg>