<?xml version="1.0" encoding="UTF-8"?>
<svg xmlns="http://www.w3.org/2000/svg" viewBox="0 0 52.02 51.06"><defs><style>.cls-1{fill:#fcfcfc;}</style></defs><g id="Layer_2" data-name="Layer 2"><g id="desktop_menu" data-name="desktop menu"><path class="cls-1" d="M15.72,8.17a7.88,7.88,0,0,1-.8,3.15,16.62,16.62,0,0,0-1.84,5.95c-.7,9.44,13.33,11.05,15,1.72a20.53,20.53,0,0,0,.28-3.38h0a10,10,0,0,1,.31-2.4,10.13,10.13,0,0,1,19.89,3.52,10,10,0,0,1-1.68,4.64h0c-5.66,8.41-1.23,17.7,2.94,20.5h0a5,5,0,1,1-7.66,2.93,5.15,5.15,0,0,1,.3-.86h0a13.55,13.55,0,0,0,.56-8c-1.91-9.16-15.44-7.65-15.24,1.71a1.85,1.85,0,0,0,0,.23h0A11.53,11.53,0,0,1,27,42.17,11.36,11.36,0,0,1,5.4,35.39a11.1,11.1,0,0,1,1.42-3.3c5.67-8.92,3-13.67-3.18-17.6h0A7.86,7.86,0,1,1,15.72,8.17Z"/></g></g></svg>